<mxfile host="app.diagrams.net" modified="2024-02-14T10:06:34.743Z" agent="Mozilla/5.0 (Windows NT 10.0; Win64; x64) AppleWebKit/537.36 (KHTML, like Gecko) Chrome/121.0.0.0 Safari/537.36 Edg/121.0.0.0" etag="KnGm7BUwrvQYstfc_-J9" version="23.1.2" type="device">
  <diagram name="Pagina-1" id="qoch-4OdgnDx7PMS4UWh">
    <mxGraphModel dx="1431" dy="813" grid="1" gridSize="10" guides="1" tooltips="1" connect="1" arrows="1" fold="1" page="1" pageScale="1" pageWidth="1169" pageHeight="827" background="none" math="0" shadow="0">
      <root>
        <mxCell id="0" />
        <mxCell id="1" parent="0" />
        <mxCell id="QatNc70n-s6f2DUu6Mrz-89" style="edgeStyle=orthogonalEdgeStyle;rounded=1;orthogonalLoop=1;jettySize=auto;html=1;exitX=0;exitY=1;exitDx=0;exitDy=0;exitPerimeter=0;endArrow=none;endFill=0;" parent="1" source="JiZGD-UJO6ILcqSkcmLT-1" edge="1">
          <mxGeometry relative="1" as="geometry">
            <mxPoint x="230.68" y="803" as="targetPoint" />
          </mxGeometry>
        </mxCell>
        <mxCell id="JiZGD-UJO6ILcqSkcmLT-1" value="" style="pointerEvents=1;verticalLabelPosition=bottom;shadow=0;dashed=0;align=center;html=1;verticalAlign=top;shape=mxgraph.electrical.electro-mechanical.make_contact;rotation=-90;rounded=1;" parent="1" vertex="1">
          <mxGeometry x="185.62" y="683" width="75" height="16" as="geometry" />
        </mxCell>
        <mxCell id="QatNc70n-s6f2DUu6Mrz-118" style="edgeStyle=orthogonalEdgeStyle;rounded=1;orthogonalLoop=1;jettySize=auto;html=1;exitX=0;exitY=1;exitDx=0;exitDy=0;exitPerimeter=0;endArrow=none;endFill=0;" parent="1" edge="1">
          <mxGeometry relative="1" as="geometry">
            <mxPoint x="624.68" y="803" as="targetPoint" />
            <mxPoint x="624.18" y="729.81" as="sourcePoint" />
          </mxGeometry>
        </mxCell>
        <mxCell id="JiZGD-UJO6ILcqSkcmLT-2" value="" style="pointerEvents=1;verticalLabelPosition=bottom;shadow=0;dashed=0;align=center;html=1;verticalAlign=top;shape=mxgraph.electrical.electro-mechanical.make_contact;rotation=-90;rounded=1;" parent="1" vertex="1">
          <mxGeometry x="578.68" y="684.31" width="75" height="16" as="geometry" />
        </mxCell>
        <mxCell id="QatNc70n-s6f2DUu6Mrz-119" style="edgeStyle=orthogonalEdgeStyle;rounded=1;orthogonalLoop=1;jettySize=auto;html=1;exitX=0;exitY=1;exitDx=0;exitDy=0;exitPerimeter=0;endArrow=none;endFill=0;" parent="1" edge="1">
          <mxGeometry relative="1" as="geometry">
            <mxPoint x="671.68" y="803" as="targetPoint" />
            <mxPoint x="671.18" y="728.81" as="sourcePoint" />
          </mxGeometry>
        </mxCell>
        <mxCell id="JiZGD-UJO6ILcqSkcmLT-3" value="" style="pointerEvents=1;verticalLabelPosition=bottom;shadow=0;dashed=0;align=center;html=1;verticalAlign=top;shape=mxgraph.electrical.electro-mechanical.make_contact;rotation=-90;rounded=1;" parent="1" vertex="1">
          <mxGeometry x="625.68" y="683.31" width="75" height="16" as="geometry" />
        </mxCell>
        <mxCell id="QatNc70n-s6f2DUu6Mrz-117" style="edgeStyle=orthogonalEdgeStyle;rounded=1;orthogonalLoop=1;jettySize=auto;html=1;exitX=0;exitY=1;exitDx=0;exitDy=0;exitPerimeter=0;endArrow=none;endFill=0;" parent="1" source="JiZGD-UJO6ILcqSkcmLT-4" edge="1">
          <mxGeometry relative="1" as="geometry">
            <mxPoint x="576.68" y="803" as="targetPoint" />
          </mxGeometry>
        </mxCell>
        <mxCell id="JiZGD-UJO6ILcqSkcmLT-4" value="" style="pointerEvents=1;verticalLabelPosition=bottom;shadow=0;dashed=0;align=center;html=1;verticalAlign=top;shape=mxgraph.electrical.electro-mechanical.make_contact;rotation=-90;rounded=1;" parent="1" vertex="1">
          <mxGeometry x="531.62" y="683" width="75" height="16" as="geometry" />
        </mxCell>
        <mxCell id="QatNc70n-s6f2DUu6Mrz-102" style="edgeStyle=orthogonalEdgeStyle;rounded=1;orthogonalLoop=1;jettySize=auto;html=1;exitX=0;exitY=1;exitDx=0;exitDy=0;exitPerimeter=0;endArrow=none;endFill=0;" parent="1" source="JiZGD-UJO6ILcqSkcmLT-5" edge="1">
          <mxGeometry relative="1" as="geometry">
            <mxPoint x="371.02782608695674" y="803" as="targetPoint" />
          </mxGeometry>
        </mxCell>
        <mxCell id="JiZGD-UJO6ILcqSkcmLT-5" value="" style="pointerEvents=1;verticalLabelPosition=bottom;shadow=0;dashed=0;align=center;html=1;verticalAlign=top;shape=mxgraph.electrical.electro-mechanical.make_contact;rotation=-90;rounded=1;" parent="1" vertex="1">
          <mxGeometry x="325.62" y="682" width="75" height="16" as="geometry" />
        </mxCell>
        <mxCell id="QatNc70n-s6f2DUu6Mrz-98" style="edgeStyle=orthogonalEdgeStyle;rounded=1;orthogonalLoop=1;jettySize=auto;html=1;exitX=0;exitY=1;exitDx=0;exitDy=0;exitPerimeter=0;endArrow=none;endFill=0;" parent="1" edge="1">
          <mxGeometry relative="1" as="geometry">
            <mxPoint x="280.68" y="803" as="targetPoint" />
            <mxPoint x="280.18" y="727.5" as="sourcePoint" />
          </mxGeometry>
        </mxCell>
        <mxCell id="JiZGD-UJO6ILcqSkcmLT-6" value="" style="pointerEvents=1;verticalLabelPosition=bottom;shadow=0;dashed=0;align=center;html=1;verticalAlign=top;shape=mxgraph.electrical.electro-mechanical.make_contact;rotation=-90;rounded=1;" parent="1" vertex="1">
          <mxGeometry x="234.68" y="682" width="75" height="16" as="geometry" />
        </mxCell>
        <mxCell id="QatNc70n-s6f2DUu6Mrz-101" style="edgeStyle=orthogonalEdgeStyle;rounded=1;orthogonalLoop=1;jettySize=auto;html=1;exitX=0;exitY=1;exitDx=0;exitDy=0;exitPerimeter=0;endArrow=none;endFill=0;" parent="1" source="JiZGD-UJO6ILcqSkcmLT-7" edge="1">
          <mxGeometry relative="1" as="geometry">
            <mxPoint x="324.07130434782624" y="803" as="targetPoint" />
          </mxGeometry>
        </mxCell>
        <mxCell id="JiZGD-UJO6ILcqSkcmLT-7" value="" style="pointerEvents=1;verticalLabelPosition=bottom;shadow=0;dashed=0;align=center;html=1;verticalAlign=top;shape=mxgraph.electrical.electro-mechanical.make_contact;rotation=-90;rounded=1;" parent="1" vertex="1">
          <mxGeometry x="278.62" y="683" width="75" height="16" as="geometry" />
        </mxCell>
        <mxCell id="QatNc70n-s6f2DUu6Mrz-116" style="edgeStyle=orthogonalEdgeStyle;rounded=1;orthogonalLoop=1;jettySize=auto;html=1;exitX=0;exitY=1;exitDx=0;exitDy=0;exitPerimeter=0;endArrow=none;endFill=0;" parent="1" source="JiZGD-UJO6ILcqSkcmLT-8" edge="1">
          <mxGeometry relative="1" as="geometry">
            <mxPoint x="525.68" y="803" as="targetPoint" />
          </mxGeometry>
        </mxCell>
        <mxCell id="JiZGD-UJO6ILcqSkcmLT-8" value="" style="pointerEvents=1;verticalLabelPosition=bottom;shadow=0;dashed=0;align=center;html=1;verticalAlign=top;shape=mxgraph.electrical.electro-mechanical.make_contact;rotation=-90;rounded=1;" parent="1" vertex="1">
          <mxGeometry x="480.62000000000006" y="682" width="75" height="16" as="geometry" />
        </mxCell>
        <mxCell id="QatNc70n-s6f2DUu6Mrz-76" style="edgeStyle=orthogonalEdgeStyle;rounded=1;orthogonalLoop=1;jettySize=auto;html=1;exitX=0;exitY=1;exitDx=0;exitDy=0;exitPerimeter=0;endArrow=none;endFill=0;" parent="1" source="JiZGD-UJO6ILcqSkcmLT-9" edge="1">
          <mxGeometry relative="1" as="geometry">
            <mxPoint x="187.68" y="803" as="targetPoint" />
          </mxGeometry>
        </mxCell>
        <mxCell id="JiZGD-UJO6ILcqSkcmLT-9" value="" style="pointerEvents=1;verticalLabelPosition=bottom;shadow=0;dashed=0;align=center;html=1;verticalAlign=top;shape=mxgraph.electrical.electro-mechanical.make_contact;rotation=-90;rounded=1;" parent="1" vertex="1">
          <mxGeometry x="142.62" y="683" width="75" height="16" as="geometry" />
        </mxCell>
        <mxCell id="JiZGD-UJO6ILcqSkcmLT-10" value="" style="pointerEvents=1;verticalLabelPosition=bottom;shadow=0;dashed=0;align=center;html=1;verticalAlign=top;shape=mxgraph.electrical.electro-mechanical.make_contact;rotation=-90;rounded=1;" parent="1" vertex="1">
          <mxGeometry x="93.68" y="682" width="75" height="16" as="geometry" />
        </mxCell>
        <mxCell id="QatNc70n-s6f2DUu6Mrz-110" style="edgeStyle=orthogonalEdgeStyle;rounded=1;orthogonalLoop=1;jettySize=auto;html=1;exitX=0;exitY=1;exitDx=0;exitDy=0;exitPerimeter=0;endArrow=none;endFill=0;" parent="1" source="JiZGD-UJO6ILcqSkcmLT-11" edge="1">
          <mxGeometry relative="1" as="geometry">
            <mxPoint x="476.68" y="803" as="targetPoint" />
          </mxGeometry>
        </mxCell>
        <mxCell id="JiZGD-UJO6ILcqSkcmLT-11" value="" style="pointerEvents=1;verticalLabelPosition=bottom;shadow=0;dashed=0;align=center;html=1;verticalAlign=top;shape=mxgraph.electrical.electro-mechanical.make_contact;rotation=-90;rounded=1;" parent="1" vertex="1">
          <mxGeometry x="431.62000000000006" y="682" width="75" height="16" as="geometry" />
        </mxCell>
        <mxCell id="QatNc70n-s6f2DUu6Mrz-31" style="edgeStyle=entityRelationEdgeStyle;rounded=1;orthogonalLoop=1;jettySize=auto;html=1;endArrow=none;endFill=0;" parent="1" edge="1">
          <mxGeometry relative="1" as="geometry">
            <mxPoint x="839.68" y="803" as="targetPoint" />
            <mxPoint x="139.68" y="803" as="sourcePoint" />
          </mxGeometry>
        </mxCell>
        <mxCell id="QatNc70n-s6f2DUu6Mrz-120" style="edgeStyle=orthogonalEdgeStyle;rounded=1;orthogonalLoop=1;jettySize=auto;html=1;exitX=0;exitY=1;exitDx=0;exitDy=0;exitPerimeter=0;endArrow=none;endFill=0;" parent="1" edge="1">
          <mxGeometry relative="1" as="geometry">
            <mxPoint x="722.68" y="803" as="targetPoint" />
            <mxPoint x="722.18" y="728.81" as="sourcePoint" />
          </mxGeometry>
        </mxCell>
        <mxCell id="JiZGD-UJO6ILcqSkcmLT-12" value="" style="pointerEvents=1;verticalLabelPosition=bottom;shadow=0;dashed=0;align=center;html=1;verticalAlign=top;shape=mxgraph.electrical.electro-mechanical.make_contact;rotation=-90;rounded=1;" parent="1" vertex="1">
          <mxGeometry x="676.68" y="683.31" width="75" height="16" as="geometry" />
        </mxCell>
        <mxCell id="QatNc70n-s6f2DUu6Mrz-1" value="" style="shape=image;verticalLabelPosition=bottom;labelBackgroundColor=default;verticalAlign=top;aspect=fixed;imageAspect=0;image=data:image/jpeg,/9j/4AAQSkZJRgABAQEAAAAAAAD/4QAuRXhpZgAATU0AKgAAAAgAAkAAAAMAAAABAFsAAEABAAEAAAABAAAAAAAAAAD/2wBDAAoHBwkHBgoJCAkLCwoMDxkQDw4ODx4WFxIZJCAmJSMgIyIoLTkwKCo2KyIjMkQyNjs9QEBAJjBGS0U+Sjk/QD3/2wBDAQsLCw8NDx0QEB09KSMpPT09PT09PT09PT09PT09PT09PT09PT09PT09PT09PT09PT09PT09PT09PT09PT09PT3/wAARCAEwAdoDASIAAhEBAxEB/8QAHwAAAQUBAQEBAQEAAAAAAAAAAAECAwQFBgcICQoL/8QAtRAAAgEDAwIEAwUFBAQAAAF9AQIDAAQRBRIhMUEGE1FhByJxFDKBkaEII0KxwRVS0fAkM2JyggkKFhcYGRolJicoKSo0NTY3ODk6Q0RFRkdISUpTVFVWV1hZWmNkZWZnaGlqc3R1dnd4eXqDhIWGh4iJipKTlJWWl5iZmqKjpKWmp6ipqrKztLW2t7i5usLDxMXGx8jJytLT1NXW19jZ2uHi4+Tl5ufo6erx8vP09fb3+Pn6/8QAHwEAAwEBAQEBAQEBAQAAAAAAAAECAwQFBgcICQoL/8QAtREAAgECBAQDBAcFBAQAAQJ3AAECAxEEBSExBhJBUQdhcRMiMoEIFEKRobHBCSMzUvAVYnLRChYkNOEl8RcYGRomJygpKjU2Nzg5OkNERUZHSElKU1RVVldYWVpjZGVmZ2hpanN0dXZ3eHl6goOEhYaHiImKkpOUlZaXmJmaoqOkpaanqKmqsrO0tba3uLm6wsPExcbHyMnK0tPU1dbX2Nna4uPk5ebn6Onq8vP09fb3+Pn6/9oADAMBAAIRAxEAPwD2B2OTzUDyMM81LJ1NVZjTGMe4bJwelQ3Oox2UYeeQKD0GMk0kkixIzt91Rk1zwifUZ2uLjJTOFXP+eBXNicSqEbsynOV1CCu3+BonxTGSRHBMw9cVVufFiRZLxug9xTZEEYwowB2AqncxrNGVZQ6kYIPNeUswqN3a0N3h6vLpJXGHx7agkEP+QpR4+tDjh8Z56V554h0ttOujJDu8qQ9znbWbfSarqlvc31ldrFZWZEQQyBGJAXOB35Ir16cueKknozz4/WXNxbSa8j1X/hPrPnlvbIFB8f2AH3m9+BXhr6rqUeA07dccgH+lXtSttZ0mRPPuY3LqJB5UiuAM45x9D+VXaXc19nX/AJl9x7H/AMLA089Gk/IUf8LAsPV/yFeOaUur65dSW9rdKrIu8l5BGMZx+eSOKonU9Shz/pMvOOSc0Wl3D2dffmR7l/wn9h2L/iBSj4gafn7z/kK8bni1mPSbbUpLsGG4O1VWX5++MgdPun8qr2V9quoX8Fnb3TGSZhGm4hRk8cnt9aLPuHs6/wDMvuPbf+FgWHq+PcCj/hYFh6v+QrxjUP7Z0m6aGe5LOvBaNw68jP8AUU/Tk1rVbKe4gugY4PvbpQjHjPA78UWfcPZ1725l9x7J/wAJ/p/dnH4A0n/Cfaf/AH3/ACFeHPq2pR4VrmTCkjkA/wA609Ttdb0wQS3EoAlQSARuHwvvxwfanZ9wVOv/ADL7j1z/AIT2xPG98fQUp8eWP99/++RXjeknVtYvTa29wvmEEgyMEHUDrjqSQPxqvNqGp22+M3DqV6kYI/lStLuHs69viX3Htg8f2Pq/5Cl/4WBZDpu/HFeOyW+rDR49Te+Xyn+VUEn7wDLDJGOhKn8qqRarqcs8cK3cmZCEGSAMniiz7h7Ov/MvuPbv+Fg2Y9f0pw+INkR/HnvjFeN6kNX0S5EM96rsyhg0Um8c1Jo8Or64t0Yb9V+yx+Y3mOVJGCeMDk4U9aLPuHs8Re3MvuPYD8QbIf3/ANKP+FhWXo/6V4edX1KP5RdSjBwec5/zitK4tdYttPt9RlvFeO4AZVSUlhkZ5GOOCKdn3D2eI/mX3Hrp+Idh23/pSH4g2A5y/wCleN2E2qatetaLfbXIY7pX2qoUZPOO1RX02p2MssRuW+QkFkOQceme1Fn3F7PEW+Jfce0f8LCsfR/0o/4WFYf7f6V4/b22sXujzakt1mCBtkgMu188dF9PmFUZdV1IOq/apgGAwu78KLPuHs66+0vuPbv+FhWPo/6Uf8LCsvR/0rx/UbXVtEuEhurvLuuQYpt4Hbn3yKZpMera5PJBFfhGRQxaaUoDk7QB7kkUWfcPZ4i9uZfcex/8LCse4b26Uf8ACwrL0f8ASvEZr7UrWRojdzDa2Dzn8s/StCS21b+xotX+1E20jbRiX5geeq/8BP5UWfcPZ1/5l9x67/wsOy7b/wBKP+Fh2XcP+leL2t1qN3fx2ounZpnCJubaMn19qs6qmq6TmKS83PsDlo33jB5HJHcHNFn3D2de1+Zfcewf8LDsvRv0pP8AhYll6N+YryOxi1TUbKe5W6XZbna3mS7WYgZ4HfgGs6XUr+KQGS6m24yV3UWfcHTr/wAy+49u/wCE/tSMgN+lJ/wn9vn7rfpXlj22r6R9juftqlLgZXy5C3YcHI46j1rSkgl1K/G52LNHHuPqxUf/AFz+FTJuKvcxq/WabS5k7npMXjaKXASOQk9AACTVg+J2RNzWtxj/AK51h6TaxadbKiAZAwWPU/8A1qvC9ichRIu49BmvLlj5uTUVdI7KeGxDjeckn6D5PHVtGcFJB9QBUZ8f2v8Adf8AIVj+IdGjv4TLGoWdeQRxu+tcQzFSQeCDg57V20K7qq99TgxE8TQlaTv52PTX8eWxz8r/AJCoX8bW3pJz14FedRxSXORDFJJg87FJx+VXxoGtPGHTTLt0PQrGTXRr3MVXxEtnf5Ha/wDCb2YHKTE+uQMU3/hOrPAGyX3ORzXDy+H9eRyp0m949Iif5VbttE1OODbJpF80rb8lrVjt+QgfiWIPtiiz7msZ4l7v8DrD47s8khJPYZHFIPHVnggrLuJ4ORxXI3Ph3Vr2eBbfSLyFRF+8ZrdlAx/Mgce5ol8G6mAght75nYcFrRlU/XuPxqG2nZtm0YYqV2mdYfHNnkECXA6jjmpB48sUziKXp3YHFcxbeHtaV9OZtIuBGoxMGiB5yeoxnpjrn2p8PhrU3hj/AOJRdLceV8xaMAF9reowDnHWrtLuSlX7/gdMnxEtF48pyfUkDNTxfEu3UHdAxPbDAVy9t4YvvJt0uNFuSfKKyMI8FWJXkY645PPpjpUFzouoW2p2ymwEUQifKyBBk4PODz1x1z+FHLLuO2Ite/4HcwfEq0dwGt5AO+1ga6fTdYttVh820mDgfeUjBX6ivBl0HWozuFlICepDrz+tdH4bl1nSb2OWS1lXb97JGGHoeelK7W+pEauIjJcyuup7L5jetLvPrVCPUrORAwuoORnBkHFSC9tj0uIT9JAa0uemW/MapKro6uAVZWB6EHNT5piI5OpqpLVuTqaqz0AZuof8eE/+7VS1jAtY8dNuasatJ5elXL/3UNYeg6xFeQtAWHmxHBGeo/zxXlZjSc0mtkZU6kY4lRe7Rq3O2O1HTLDJrDSX/StgP3jgj1rVvYXuExG4Hsaow6d9mJlmcPJjgDgD/wCvXO5xdNRS6WPSSs7s5vxZEp0+UnjbyD6V5Xc3LorpFIyqZCSAeD/nAr0rxldFozbwgsxOWA5wP88/hXCuun2sN/a6hayC9JLwypyFyAV79Dz+Y+lejgouNKzOBzU68rMyopTLjzCzHcP5GmzTSiYq0zOqnABYmhwsZDRHILce9X75NLlEbWCyQsqncjnq27jqemMV2FlKKR0hd4nZHB+8p28cVCJWcMZHZiR3OavaT/Zv2uRdYSYwkYXyjyrZHP0xmq1xbxxgtGdy+p7Ug8wunkTCCZzFgMFJ4H4e2T+dNjPGUYq6rkMDjHNXvKsJtNjGGiut37yRidpHOMenYVVhSOK9hW4UmHILgHkrn2oBkYuJpJk86Z3AI+82asebNBZIbed41ZSHCtjd/kU++hs3nMljlYiQFQ9RwM9evOaWxXT3sJxeeZ54X9wVBK5x3x780ugFe2k8x4xIwbLjOeeMGkuJ7jzGVriV0BPBYmiSBoCu0qQx+VgevH/160NW/sy4FumnQtC6qfM3fxHj3+tMZVSQokksE7xSggZUkEjA/qKgSZpBIZnLsVPJOasWH2VL0jUI3eBQdyoec44/KormOAPI9sxMRzjIxjn/AAxS6iHXsjxuyQzMIyASoY4/L/PWltSuBg4ZUyGJ6EGrCw2L6Uyuj/bt27eCSpXP6cH0qnEgimRZAGTI3gHqu7mmgE8yWWdWmnaQ56uSakIxarIk2xwPug4Jq9q8WmyXiPo6OkYA3I/UN3/Dp+tRaWdO8qYalE77k/dFCflPP8zj16UdNhlW0YGSMOScyck/Q0SXNxE7RC5k8oHG0McYpJYxEcQvlA3BJ9q0bqHTZLG38hHjulTM+/OHbAzj8cntQBWBVo5nWQJIpyCT1+UVCkskkcxklLnYeWbJOaktRAL/ABdIWtxneq8HlePyOD+FOv4bYXE72SlYCCVU9VHofegQl3LLGSsFwyowyUDYB9fr0FMidZQgY4IjbJP1yKu2UGlvYMt55n2yZj5UinKoMjqPzrPeBkdUUA5U4APUZoARbiV5182Z5Fz1dicVK+37MskchSQEg4JHQ5q7qNvp00iS6XG8aZwyOSecnpnsBgU3RBp/ntLq0cktsFwojPIbd/hn86L6AUbdyWG9tzFhknn1okklhcpHOzRgj5Qcqfw/OpbyFIZP3JUqWGCPerscGmnSkTY6XygFnzlW5b9SCv5UAU3KmGZw+11YFSDjHFQrPK0cgmlZwEIGTntT4FiF+i3IJgV1aVRwSvH61NqMdtvd7GMpA0fAJ5HHPX1OaAI7mWSGTMMzIGGSEbGaWF0cx+YesbZJGc9P1qWyhtDFJ9rQmWQgxOCcDg9fbJB/CqdxEUkVFYAhTjFMB8dxIkwQSMyKcgE5x/hXoOklTex9MiBD+aqP6frXHXK6ayRCyt5I5VwJCXzubA6e2QT+NbVtemz1OJyfkMUak+g2iufEJyptIxqSUZxb2udvcS7IwOx4qg8gznPA/Or8SR3tsEY/KwyGB6U1NBJceZc5jB7LgmvLoVIwhZ6M9GXvaotwyNNp8bnOSMZPevPNaTZqdwFPG7PFeh31zFY2ZJIWONcBa84vJTcTvK3VmJrfBxd3K2jPKzKa92PU0PC2BqNqzthPtGGycDG3nP4E1teLbmXTNclttKuZbe0jCrFFFIQoG0dPY9a5vSJXE8MaAfNKx5/3at607efACSf9EgAJ7/u1r0lsVhPgI317VMY/tG6B9fMNQnX9WzhdSuyTwAJCc1SfHpmtzwtLaRyXYuEdpHjAjETbHPPIViRg4wevbv0pnUjN/wCEh1fOf7SuuP8ApoeKE8QaqXUPql1GrHBZpCQvv9BV7xLbA6kJLaCUIIx5rbScH3I4JAwCcnJrR0Dc+iQ7xPFBBJJumW3STcTghUBBLH8gO5oGZFze+IYdTmsEv7ueaJiuIXZt2OcjvjHNOmuPFFrZC7uJr6KAkANI5Xk5Hf6Gl8u81HxpMY5JbK6MjSFmGHj2rn7q98DoOvSrviC4k1LRlmt7tnt4ZBHOjQvFvkJYhwDkZ68DGPSgdzG/4SPVzx/aFx/38NL/AGneXMiNcTtKyZKtJ8xXPHBPTPtVARjPJH59KnjTDe1MVzRS9uSBmQn0yBUsc0p6kHPXIBqnH7+vFW4x0Hc9aQy3CXJH3cnjO0c1q4jjtRIIkVweGCjNZdvHnBx3x1xWndZFlgZOFznpSvqFtD0fwvZwW+iwyW6sv2lRK4LEjceuAegPoOK3M1j+HD/xTenepgU1scVZkRydTVWercnU1UnoAx9YG/SbsesZxXli3L2d6ZIyylWJypwa9V1jCaTdZ4Ajrya4DGZ8KxGccLUtJuzPEzCTjXTXY6a18VTCENNAXGPvAEf/AFvyqG+8TzTIyQKsZ6ZJyTTNL8S/YNM+yvYQsDBJCJC5DHcT1GO2cfnXPBY8/eZTghScAZ7ZyeB157e9Y/Vqd7pGksTVcEoybvuaGmajFb38WbSae7kJBIYHOQRge5z39Pwqjqen2xVDrGlu8yjYHWUxkjsDjrjpmpPDDrL4y06CVA6vOFbnIb/Eda0rm4dJCiykIrkAZzgf4Vsk1ob4Wk5xu20zmoIdFxtTRpGC/wDTwTj9Ka+n6KXD/wBkzqQc4FyTn9K6JL2XtKy/7rnIqM3F2mHSeVl6hlkPH1zRqdKoPfmZjSWGkyhQ2lTAnowuP64pkem6QNyjS5yAec3Of6Vu/wBo6g8aIbx8qeBkc/Wrtjq9yY1R5UfnbwSG6Hr+NHzF7BpWUmcv/Zei9X0y55OMfasY/wDHa1IvD2kXNs0n9mziONcsxuPuj/vn6fnWpda5LNZgbgkuBghueTW3fRxxeEZJrlS8+14zJjLEdcZ9M80ne17kzpSUb8z0OCh03w7DIW+yPIB8uftm7H6Vbh0PR71Jvs+lTu8YBCpOSWBOOcDtUgmuZfGcklvb2YupdOVjv2iHyzGOgPG7GPxqfTImeznJLJHiMM4woA3c/XA5/Cq8ziqznCS1epWi8M2yAJ/YVyc5IVnfJ9eo+lO/4ROz8wOfD96WByP3z8fpW3ILa1tp5TgTEhY0EjEqMdOvtnJ68YxVmRIpBfbUKeUSAwkJ2fKpAxnnJJHfpSbaM/aTTbTdzmbjQ9I5WfRZ0YHnNwVI/wDHaYmiaLakj+zJ1LjJD3Oc/wDjtb+qvH9vZHBkdigVANxY7R0rPuovtKie3dnOdpVecY4/pipUtbMzdesk7PQz/wCx9Fd+dPlCkYIW4Ix+lXDoeiyCMGwJRVxkTnn8cUCIJbOzA79pGD24rS8OW0dzBdrdbW2AADJz3zjHc4+lU77oSrVpWV9TOh0DQkmDjTWz2JumP9Khl0HRJYwzaYwXOMi5K5PHt9a3P7OW3jsh5pDXB2j5MheM9e/p2/Lmq0WmtIiPcO2FnEbRkYAG4KefXnOPbPTihXepSq1+r1Mj+zdFSARRaadh+YlpySTj6dP8/U/srQ/lMmlzs6/9PRGP/rVsvpAEt3+/2pCocBozuOc4BA6dDyfUH6RnSUE6J5j7PI85mEecfLuwOeevXimw9rWTvfczpLHQ5QN2kyZ9RcEfyFNhsNEhyE0qXDDkG4J/pVz+zm/s9rrPKyCPZggnvn6YFS29vbf2VNLOqh97KrZbdkLkYA4xnOc9qViFVqW5b6GZJpmhu+7+ypAwGBi4IxTnsdHNt5a6YwYLhWM5O2rFxCIzEoVT5kSuMA85Gaty6akehwXarvleUhsNnauOBjqDwTz607A6tVrfYyo9O0OEhl0qYNjvck0slhob/N/ZT59rgjNbdto8E2jG7Y4mUSDy88k8bT9Bzn8KSPQCl+0Um940XcdsZBJOR+AyM59McUW8yues2pXMFrLS0QRx6WTH3UysT+eKiGm6Txu01sgZANy2AO5PHT+dbsWj7ZNO3t5guiDIoRhsB9+5we3SqlrZNNewxSQsY3kAYAEZ5p3SJVWqnvuZcttpMp+XS25OM+ect+lEWm6aMhdP+994mdm/z/n61qalYrbXKeTEQrxK3Rh168HkDIPH64qvl04EDfietDfREyr1Y3imVZNP0mMYGmkseAouGGajNjpSp82mAkDvOxxVsJtO5zlzyT6VUO5mYsCOeAazbZKxVRq3NsV2t9Njbcun89OZ2NMup45JlaOLaSFRI0yx4AH40k+Rn9KoiWSF55FJ3rbuVIPShauzOqnzVmlJm9Yapf6bgLazmL+66Hj6VoHxjcbSqafNv75U8fpXHWmnareaTcaosimGNthDHLE8dvxFZ4vbmSdAHAcnII4/yKiWGpyd2j04U6kVZSdjrn1O41G8Rr9JViU5K+WcH247n3qpcXOni1nB/wBeYYxHtBwGGN/XuefbrWRrUV9pOoR2d3Mjn5WIjOQQaz7qVjPKMnG8/wA6tQUVZbGUsO73buzodCuN1/CQcDzCBnv8prU1z/j5tyB/y6W/Hp+7Wub8PykXtvnn96c84/gNdLrAZ7mA56WtuM9P+WS1Wx1UY8sWjJIByau+Hwx1+wCxLLmdRsfgH/8AV1/Cqp4BGASan0i5W11i0leBpdsqkxoMlvYe+aDVHba2LsWWpCO6gW3MTYSSM7yv13YyfpWNpFvHLoEXnTKjK0piyJCRJlcE7QQRjPB7noa09cRBp95dXGlK8zoQ0uUZ42PRjj04GRms7QJmTRhue6ijYy75BdiGJRleeec5IGfegrqUJhEnj2fz5girMWDbzGC+3I+bqoLYGewNXvFN1bX9kga4T7ZDszFFctKhLA7uvHGB8w9ce9ZN/eJb+Kria4tHuEWQhobh927juR19cikk15ZtNmtU060tjI6MHgTb0zwc9etArmelu3XK1Y8pkHJH0q54e8qbWbdLmISxMTuXGex598dce1afi1II57MW9n9mXy2AIUDcobA6dSAOT70AjCTAx0zVuMnAGe9VU7dPyq3FkY9qCkX7bgjOcew61flIeNh04xWbE5B6nr37VZc8EbvpUlXPUfDZLeG9NJ6/Z1rZxWT4dH/FN6f/ANcBWtitLmFhknU1VlqzJ1NVpeaAMjXv+QJd/wDXM15VJtEzcr/rPT/PNera3g6Ne+0ZryuV8SSHeuFfJyKl7niZj/FXoMJXzNoVcKcAA5/z/wDXpZHLoDlt3UnPU0+OIyl3/unIz74FTmIIh7n1paHn1K6hZLcXwbZSSeLrJl/5ZyhyM9AM1LNErO2OuT170eFZSnjCwUA/NMAcHpwaWYNvZQDgk5OcZ5qlqe/l8m6V2QBIwCBt3ZwQT0puFeNw3HHPBIpZEbPIwP1qNywBwwKntnFM7RTaqgKqxBPPBx/nNV0ia3IwGIZs7v7v+R/OpBLmRQBkZwTVmM/aAQxOQSx5xmpEUnlIILBW4UcDbnvXXGRbzwSU5cn5S2cYPX+XFccUZJyMEDauCDiul0qbZ4LvWJ5VgVBHXj/JoezMq38N27GPHYxR53qspY9XGcVYF9LZSCJIldJQAyuu4Hn+n9apC6fJyvzH7oqMlckudxYkknvj/DIqEm9WfPpy3NSS9dJCj2dqsQ4VhAOP/wBdH22aJyn2a3U9TtgBzWcPK/2uBn/P5irVtctbkYJMWcken+fSq1S0HzO++g2a5kuZ3maQCViDuQBSMcDHpjGKeL1jPM4jUSSAOdoAAPQ8Dt/k06S2xc71wbdxlmLA4+nvTUjVAWB3cEbh3pqzD3npfS4AOIJN4+8hYE98g1BamSGM4Zw27+E9MY6/571NHcG4hmdiMBcDHpg8VHZYw2R8ucFTz6f0qle2omk2rFmO3v5kjkAlZRloxvxn/dB7H26/TgsEtzNH5Q8xkjJcgZOCe59+Op//AFaV5YyTCZoUMkskm6Nthbcnba3RQOc5x/hJFc2sd1dPMQVYIAwJwXAwz8dRu/PNK6Rq4cr3sZUZZyzvI2xh8xLH5/r6ike5kdyVZlX7o9/89MVofatPeOx+WP5H/eq0Z5G3HJ788jrj0ojlsrazhkfaf9J3Kwjw5CuP025+X1pJX1ZHJ3aM576QwiEyKFUk8AAk+/06VCXDxlDINuc4BA5rSnu7F5L0pDEzug2MYyBu7kAfdJ46+h4qIXUAnDC3jKLb7VBj6ybe/r82eadiWlfdGeNqEHfkgYG4hsfnUqB/JkKM5iyN5xlR9fQ1YPljRwTABO02FbPVAOf1wKfDeiHSpLcRkySSEnJIAUrj8T9afqJRV9X0KxuJUxmUjI4BwOD/AENOFzd5V1lly/yqw/i7YHr6YpLmRZHj2JwsSKc56gc/rVyG6jhjtUEpC8mQgMWjYhgMdsDOeOeTSsgSV7XKL3M4ADTMBGcAHA2n+h/wqN5poXAaR0cc4ICkVoTXUcv2jMjFGmjYAggvgEFvY9+fWma3dJe3gkjCsAuCQGA+8T35zgj8enFKyG4JJu5nyXUsrlnnLMerMQSaie4b/noM/hTju/uVCZF37GXB9+9FvIzsmI8jnndn60uVcA9s8g8GpHkzGEcZK/db+h9qrOGjc9iO3rStcTitluViJEO7HzBgVHWm6tIqPt2qkxgYyoIdm3/Eckf5xVpvnXcuQwOeO1Z179puXm8+VpB9nkwXOcUJ6ndg5q9nozm7iRknZY2YoTkANxTDJIfmCqCB2Na1hDowhu11OS4S6Vf3PljIc47+mDis3ylDrvB2A5bHpVntoZEDITIzfOpXaCeTz7+lEpPnSZ67zmrurPpkt6o0aG4jhwuBMQWB78jqOlVZIGM0nB+8RzSZE7I1PC0IudesICSEluUjJHJG4YrvPGWmJpmryW8ZJjijjRCepARRz78Vx3hKNbbUrO6k4SC8jdiBnCgZP1rs/Hl8l7r808B3RMiFG/vDaDn6HNIunqmcpJjnp+FSaZeCx1a0u2G5IZA5UdwOv41BIc5J/wAKsaPLFFrdnJclfs6zK0mRwBn+lBZ2er39rb6ZqciyTSm9AQKwYiIkccEfJkc478Vk6AXi0cEvGwuJWjjjmtw8eflOwsfus2BgHIyBW7q7pDputzXN1FJDeKDAgAzuC4HP8R4Bz7Z4rn/DkdsdMmLQW9yy72mjlR3bO393sUcYznJ60D6lC6sll8bXFrdi9uQ0pDeSo845XI+UccccegrT1fwra6ZpTTxtdtKXQBZgF259V7Gud1K5SLW7iXTppRGWOxyxDYI55POOo55xSpDqJtTLIt2LYkAu+7aSenXr3oFc2tB0C+uZEuUhhECk4a4Xcjdvu98f5NXvF1m1tDpymRSgRwqRxhEXkHIA9c1PoOkNf6JaC71CUW0jusdsh2AnJzk9SeCcVF4xeT/QoPsrxQQKyROxB3gY6Y9MDrzzQUtjnEHQ1aixwP51VQAY+tWkGQP5UAWoiTkEjj1NWM5Geh6Hmq0Yx17ip+iDOc4pFHrfh8AeHtP/AOuC1q1l6D/yL1h/17p/KtWqMivIeTVeQ9amkPJqCQ0xGXrfGiXnvGa81uNNlhvZEn4cHIwegIr0vWiP7Euzj/lmTXCXwMd46PIJGAHzZznj+lZzbTPn83bUrrt/mV7a3bybhkTKRqu4jtk1HIODVm3Rngu3VgFRV3Ln72W/pVeX7hqLnjVF8L7oPC8BfxdYMvVZgx+nNOkJMkmc5LEgA9eai8NykeLtPGOGuF/rT5P9Y3GfmJrWOx9Vlv8ABVyKTJ9QR3IximbGP8IPfAHWrGA4JxjPQ4pvkk569OgPSqPQIQAgAwRg+mcVLGjZJXPORwDzmnCIHBYbgeoJzUdxgrtBCgD1xikIpy4MxyhZdhAwK17ERDwXcLgq5uFXB4wdv/66x8AZ2FcscHknArRt7hrXwdekj5mu0XA5xlaTMq1/Zu3Yzox+5lYht2QBjqRU1kkUcZW5ReT8oPr7VBFE0YUzsojYgHaT7c/zpbmIR3Qjz+6x8qg546/5+tJtPRHg62T67DpTFH8yMWVudrDHNWUiAbn+7n/P51TS3WSMs0yGXyyxXB4IfbtH4EHPTt1qxcSFPL+YDjBHr0/lV2FyuO6LETxuDbPuUH5gwPT/ADzSxhRGFU5UAgN6+lNiMdsXd/mDLgj1/wA805JUcIw+UMSQO4qVo2CvfUqQ7o4WVh8zDtxipEBjGASc8knvUwK4YnH3v8KUhDtwOoGeabBLQVLmQRlNzBGOSoJAP4VXcmQjjaFAB5znFS4UqBnqcUeWuCc9BnFAnFsgJwMnOB2A601ApWRnLNMRtVCCFjB6MD6+x4OaP9YCXHLcAf3f/r/4fktBKumJgfIm9UywBd84Hucc8UsETSXOqRNcWwjsgDFISwFzz/B/k9aaJU85QcMisCy7yoYemR29/f8AGp4rdDbRj7QFZQQWMhJbLEjI7YBA/DNDaRpCUUmmk2QZb+6vr1NGW/uL+ZqeS2GRsuYSByctjPt9KdDDEmPOlicYwcN1NLmRi7plf5vRfzNNJb0X8zVx0tXjYI8Ifsd//wBeqM0OEJE8LYXs/U0Jp9B6gXJ/hX8zS5bH3V/WtPSfCZ1qzt7hLxofO3kqFDbcEgAflnNXdO8EM8hMmoM8Sj5lMYGeg4IPXnNS5pNRe7O2OX1ZR51axzhJ7gD6E0x0Egweo6H0rQ1KxjstVnso5DIsUpjEgX34z9On60W9sqAs+GYDI9qpHJyNNp9CC0hBgLOMsCQM89qSWNZMg8HsfT/61XRjEnsT/wCgis6e/t43kXzF3D5QScUpbinCXu8u5WZGjc8YYdff/wCtT4ZACSAhDKVYOMgA0eesgRppVK4G0bxn5lLfoFP44HWq2/Z86yJuC7j84PSMOf54+vHXinZs39hUumk0yFvKbLvb2OCeC0AOfyqBngKYW1ssjuIRzUt0AiSSMVZlDfxqcbQCen+8Prg1nC4ikGVYK3YgYzRr3Oq1RLW6HPeRRTKnlWSnPLGHAX61BJJ5ryMVIkLEsCMEE+o9Tnp2qy9vHfAnKLMi/K23Ak9uByxJAHQetZ003loI2YqYsheORySVPuSepzjFM6o01KF09Td0JQ8wQ8L5mSevRDWjre5LyJCfu2sHA/65LWd4bLllcjBLMAB2+T/69aHiA/6bHg5/0W36/wDXJKGdFC6izLc/l71a0jd/bdk0cayOJ0Kox2hjn+VUsn1q/oIP9u2T5G1Z0ZmI4UZ6n0FI2O01LTrex03VprCyiMskZWQj5fLU9SM9PXaMZrE0ALNptvbTzT2qSXDtFJb3Qj8whcneD2GAN3bPSr2p6baCbU72x1QW3nRuWhSRWD8fd685/HGaytOvLO20aH7XcWp3TOwiuLYzbcbeRg5GfQ8HFAzL8QJNJr161zEscu/lUbdjj17kjBz3zmuo1i/kl0OSC7eD7REIg0aSO20YzwCMA89QTwcVzmrRN/ayS3d8skd3GJxOkJGVPT5O3TGPT2rU1K+87R7uF9ea9kXyiIRFsT8D3x04xQC6mn4f1uD7Hp9jDbNPfpO5ijJ2rlu5Y9sEjvWXrj6pKltJqMgeJzIYQP4cNg9s9h17Vz8crIQVJDA5BBxirMt1PdPvnmlmbGAzsWI/OiwJkiH0FWY8/h71WjqzGOnTGepoGi3CCTkj5TwO9WTCxQgemaht+SADjNX2ISBzzwpJqWWkenaIV/sHT8dDbpj8q1M1k6ICNB04elsn8q1Oa0MLlaQ8mq7mppOpqB//AK1AGdrZxod6fSI15OLxo55PmJUMck9q9U14/wDEjvf+uRrxqWbFw/zH7/pUvc8XMIKVVJrodLbTCSOU4OSo/nRL8ynIP5Vzx1rUIZPIsbpooRjCodvPXn1JrS0nUdVv7O7Yy3c0sG04jydq/NknHpgUOnpc5KuVz5VNPRF3wzGr+L7As4TbMGGe/t9TUrk+Y2BxuPNUNI1GV/FmjStl2ZlXc3Ofmb9avjOTgDOee2aEezl8eWkkHbO32OeKTOQV5J9hmpsEDge55Jo24blc+gNUdhC8bY6Nzz06VCI8nkg4OSM//Wq6eOAQOOMDpUThjgsynPcikBn3CKSQu30ODitC2tluPCV3GSu37WjDvnCZ49+O9QSxDvEhyc+mK1LKSK38KaizDDCUeXznDFf8M0nojGvf2bt2MW2RZEkRvmUNg46H/wDVWTcXTRJJgg7AAoI/zj1xWmlwxw7EBByTj/PNYl/t2SE5O45GBz/+s1Mep4VLVpC2+r3V7JDb2yzPKVKiNBkeXu3YPoA3P/161H0nWpcf6MuBjHzr/jSeCXWKwvJCF3iSNNwHb5zj6V0U0k9veQpOGijmjDxuRnOf8im3Y92nhYTinIwJdN1l5I2NqoCNuA3jn9aItO1eNAv2XO3jhx/jXTeXcjB86M46ZINIY7nOTLH1zwRS5mafUqV72Oc+w6vyPsw5OT84/wAfapfsGsnGLPkAY+cf41u+VIM/Ov4tUkYlznzlBxjrRzsPqNLsc19g1gHb9m5BBOWA/rUiWGso4b7KOBgZcf410qCYZ/fL0xkkUriV/vTKce4o5mL6lSXQ5X+zNYfhbVS3/XRf8asXNk9hPZxXEwP2pWUMkR/dvgcHPXHPTPU109tZyS3iW8JMkjHJxyFqSaNTa7JF5juoWBI+6d2P8RTTuZVsHTUW0tTgkkzlmVd/Oc44/P09fwqzcfYrWBGkuw8zRLI0MUKkqG6DJxk9OnqKr/KYRkZ5yffAc/lmszxGUheNcgyPHGpOAMBV9vUkflVo8zD0YTnZrQsHWtP3EYusjrmBP8aT+1tPcHc9wp7YgXj8mrKuryGa2jjVMSAgk46f45qoAcAkkDPGe9UonovA0ux0k2v2YEixyTiORYw3+joN2xdo/i44JHH60v8Ab9pLbTRSSTnzDGTi3QZ2AqP4uMA/j71zIzk84xxzzU29dgUKeDkkjr/+qnZB9Up3fmdcPGothbraXF3HBApVIRGoXnOf4u+TUlj46a2ud5u73Y3BXyEIH/j3NceXQyBmBxnGMZp2/IKYzk5B9P8A69RyRbTa1Rp7LljZN2O2imgvfOvBcTTTNMPMMkIXJY9cg8dDxUyAbG5/hFZmkRbILhNww0kZBHtu/UVppkIf90Ch7ni6KRBKRHHKWIGTgA9/lFcreW2bd7lmlLeb5YBUbemeuc59sY963r4t9tdRyNoOPTgVi3IX7BIQF3/aMZAiz09vnx9fl/Gi2p0YRqVS3Yzo4xLMiZxuOM4zil+zAzvGGyF74xn86WEHz48HB3DBq39md55GWXDnIYFC3+c1Tdj2UjOuEiRwIXLjAJJXbg//AFqVbRTZJdM0mTKY8bPl6Z65znnpj8afeRuhQO275eDjGKnEIfRI2G0MLgjdhM/dHf7+P/HfxpPYxrfCyKLylADt87D5QTgD3J7VFMscsgkIBwAFJXbwPb/GrhskvEZkVI3jjycHAkx1/wCBdAFHXk1SkkKfK4VZI8/MRgt3OfVs4AzjGKTOaEE43i9TV0WVUkjU8ZkYHvj5f51e14MdQBzgCCEYHP8AyzWq/hm38+5t/OiKxC6UOTxhSOcn3APNbHjKOFPE13Fb48tGCqF5AUKMfgBSZ00PhaOZdDxnk113gMDZqoPKtCqtzjC/Nn8hXLvGeDgn3xmrVjqN5piTi1cxiZdkhCZyPx6dTSNzZl0fw7HZzumoMZVjLRjzQcsOgxjuaZpUOkR6GJtUjgKSSupZ1feGABUBl6DrkdxXO4YnADYHtWomsG20eO0W2jeVJWcNNAJFKsB0z0PA+tAXEktYta8XG1W5V4JThZbdNqqoTPAY8AYxz6ZrT1PU4L3Qb1LOScQRGKMQiOMIuP4sj5sHBOfXvWK2p3L6sNSjhSOYEEKkfycLjG30I7e9SXmrtLayW9rp1vZJKQZTCrZfHIHJ4APOBQK5nR5JAI4xxVpAT26daqJ5g5KsMcnIxVwBoyEYcnGADnqM9u9MaJkHIIz71YjyBjA6deuKhSOTjKNg9ODVmOKTn923HsaQ0WbcgEHPJPFWZnYwlfUY69KqxxSZB8p8Z54NaH2WUpGvltljgfKTRYq56npAxo1gPS3T+VaPPpVSxAjsoYgQTFGqHBzggVcqjIoSdT9KgappOpqFqYzK1/8A5AN97RGvJLVLD7UX1Cb5DcKCoBLBRyfwPAzXrev8aDe4/wCeRzXk9hYR3mqyx3F3a28ao0m65JCn24796h7nmYhN10rX0MO8ilk1OVLWMlQMl8Y+Xt16DpXZ/DEgp4gj3g5szkKQezVz8wZLxy06TSMFDSochu2ff/61dp8GYrNvC925tz9pWZkkmZCA6HHy7u+MHjtmrlorHoQXupeRzulQmz1/RnufliVlk3H+EBm61uRQyS5ZPuk8EEDP51NLbl5AF1DSoWtw2wiYknDE/nWBc3UksglcqdygnIyTWV2tzg+sugrNXOhFrLjBGcnjMg/xpfsUmfucf74FcvJdyEfKqk4wCQOKZFcPGhUxk5OdwAP4VV7iWYp7ROrNnIwACHPX74Oaj+xSjjy+p55Fc7DcyxvIQrfMCOB0/wA9Kl/tJzgKFTac4wMn60ai/tFfys2fsExBHlgc5+8BVn7Ko0G/iusIyMtwRnOV27c/TJx9awv7SkyW+TpgKR0qu9/cyBkaQlGPKjgH8KLNqxNTHqUXHlepFcSrIcJ8qryAe3ufesy9x5ZI6AcE9/8AP+fStEko4kVVyTkAjP41Wv0JtTIyqAFYqQeWIH8hTWmhxUkuZIseFQRol2y4yZ4//ZxXqjW0U3ho+dGrtFbKykjocCvLPC2f7AuiG5E8efb79etxj/inpfT7Kv8AIVD3PoqL/do5FIogp+UEdQSKY8SJn5BweDUvooHOOlNOCTtA65wKDVMhm2RIH2KQTxkhafsVxuKAjGT0OP8A61RXu77I+04+YEEJuI/Clkl+zpHlGfLBSqDOM+3oKB3LEcaknKqR0x3p5hQnJUZI9KVEYZ7c8D8KsIhOR64ApibOs8OW6R6VHJsAkYkE4/zxXI6rIY7a9wQGW4iHrj5jXa6QCmlQDpz0rhtRIkF+OebqLP8A31QY1LuDOFhkJhweMA4yenykc/8AfWf84rP8VSK97ayKcBoEIzx/CKv26EgbwpQgcde6/wBG/X1rL8SuBe2qhThYFxnv8uP6VaPKwqtUsUTCY03Fl68gdqYM8kg89x3qWYN5Iz7D0zUOGwpXoDwKs9digD7q8kHBx3//AFVLg/xKd3Y0W0jxTxMgVnDZAzjNaF0ksNq4feclC6yuW29x26n8aBGegP1xwAacmM9iMZOOavTSq9qQgiAMZO1c44brgjrn36VSjDdeOe+aCZbHX6PH/os59J0xxj+FqvDIQ/7o/lUGmkizI9ZI+v0erA5jJ/2RWfU8JpdDH1PP9oNjPRenHasm9dfsDrvXd5+dvmISOOu3G7HvnHtnmtu+RXuXXapcAYySM8fWsmSxv5lkhE8MdoD5vlvMqjd0z7nFVfVGmElGNV3ZRhtpY7m1aSJgsrApuH3x/WtSUsONvlxq8mMjOM++3r2/wqIabq9/HACyskQCxgyqNuVLfnhT9OBUc2i6mgO/BXbvyZwf4N/r12n8+OtJq+57Kqx6Mz76EQvGBnDIDzVyGTZokah1ybgkruQn7ox8uN345x7US+H9QEbSP5RCByf3wONoBP8A6EPrzV3TrW5ktY7P7RtLSllTzAEDcfMfoAfyFDdlYwr1I8tr6spoTDhhu3A5AwRz/wDWNVpPL+0rLNEMjAIXgnHU+5PXJ71uXsLwpciXU7O48iY7VWQt5jONzMPYngn1Nc7dSfOM4yw7VLbOGMZKXL0Zei8YRWokEdkWVgArPKQR/wB846HP51TPiq5kuklZFAX+FTgN9ePpWOgkkj3KmQowTnFVhuIGFYg9CBVWR6sYqCtFWO6stcXUYL6YI8BhHmBBICuC2NoyM8A9faq/9pXJfLTFSeduelY2jl4rW/Ugh9qZBH+0P1rU0fTrnVbz7PaKGfGXdjhUHual2WrOOtGTnaDd2XIb6WKQP5itg5KkZBq5LrLSoV8i3TIwCgYY/wDHq0B4KmdCLbUbeaVRlkCkAfjWHcWs9tNJDOVjmjOGRhyPT8D1zU3i2YVI4mirybSZGbqcYC3MgA6fOaPtcx4Nw31yaZtkP/LWP8q0rHw/cXVsbq5uYbW1xlZZB973A9Pc05TjFasmjGtVdqbbZR+1Sn/l6fpjhiMVZsryW0cSec2xjgsQHwfcH/8AXUt/oNzY2pu7a4hvLdeWaIfd+o9KyRcgBpYxmP8A5aRnt/8AWojKM1oOcK9N2k2mdL/bV8j/ADThuOmxcEfl/n8xWnpurTXJeMyZAXI+ReOR7e9cfbSgTJGTmKSPehzyMVsWFwsV7OiHgIv4/NRPRXMpyqqPNzPQ9bs9JsZrOGV7ZCzICTjGc1ZTSbOM5WEAg5BBIxRpRzpNqfWIGrdNapHs023FN9kNt4IrePZBGqJnOFGOT/WrFR1LVFGdL1Ncj4z8cWvhFIRJA9xPPkpGrbcAdyfyFdbL1NeK/Gk51jS/aBz/AOPUAWk+Kba9IdOOnGJbgFN3mZxxn09qqWEYfWZB/ZJ1U+W2Ic4Cn+9+FcT4cx/b9p/vH+RrtbUwJqsn2rVJtMjMbDzogSW/2ePWofxI4Kz/ANoXoVkRRNIPs7W5AUCIknb7c/nXa/B3zv8AhC7vzJY5IRdHZEo+ZDxkk+h4/I1xSuv2pB57XKMVHmnI3D8e46c12fwdRE8KX7LatE7XODcnGJQDwvr8vP51pPZHbD4TOkit5Z7nHhm6diWIPmOMcnnBFY0mfLT/AHRW5LMomnWTxbNGAHwoEhz/ALPP5VhQu0iHcPlHCtjGazn0Z5GKV0kRbDU1nGJLyGGTIV2AJ6YBOKXjPuKbKWjCgcM5xkds1KdzjjBNo6DUNQt9E1SbT9P0m0aSJ/L824zIzfnxk5FQjULK9uRa6rpMNq7fKZrYGNo/9or0IHX39cdUeE+LWSWzQNqUKBLmEtgzKvG9fUkYBHbHfNbXhzw/dSwFNdtvKsYlyGuG2svThT2UnOQePxrXbY7oxcpWWxkXVta+F8R3drFqF+4LAOf3UaZwDgfeJwT7ZFJJrjDaLvQ9PMbDKr5HlnHseuPeuw13SoL6B9R0SK1uL+JQo2sGwo/ugcbh2J/nXGr4cuneS810TWNkrZlknbLyH0Hck+/FMVSEou0dvwItcsrW2mtJLeFoo7m3E7Q792wknjJHTgVzWou3kn5ssBjJPT/6/wDnrWrqd8dV1SW5ZNkZASKMfwKBhV9+1ZF5kxkqFCjgZ60mkYJpzujT8JoTo15uBO64iHPf79etwgnQZR/F9lA5+gryrwuP+JFNjr58ZP5vXrEQA0GT/r2GfyrN7nv0f4aOJicdGxx1B4zUgA2nBx2PbFRocYwOOvXpRkD375PGKZqVby5QRvGCCyEbtxKjn3qeaX7PDG6sihiAS5IB+mO9VZWYTTMPM2kqB8m78gfxq8XUoAY97AjCkDA9+elAy2mTjPIA4watxZyAQO3Q1UQgEHnJHU1ZjkGQB2PSgTOw00/8S2D64FcDq77I7/AyRcRHGcfx13enOP7Mtz15NcLrUfF+ePmng5P+8aOplU+BnAwysYyN6jGCTjpgDp6/dAqh4lz9ttTnObWNhjjHHWrkRJAG8sfQAgmqHiMk3tvzki2jAz/u1SPKwr/eMrTlTGD/ABcA81ADnnHAHp0ppLEY5JB5B7Uo7E8npwa0PWZPCMzxq23BYZJGR+PtWhfAoV3BDbhgVjBJJH+B5rNQqJBvxhm53DIP/wCqr1yUMKhBG4XC+YgAwPTGc/nigQP5REoULkgkKIypXnv9OneqwyHGeMcdKsmQ+TIftKyKFwN33+vTnnn2zVTk9+ScjjNCEztbDb9lbkfJJGDgdOH/AJcVKbpY0wuGYqB9KqaJE17b3cLvHEzNFtLttAHzVcvNNlt40lJtmUkK3lTh8E8dPf8ArWZ4EoVFqlp3M6XJcuxyC2QxGdp9D7UktqChlBOwcEgZ5qXYCWBZQFOCTzn/ADkU1BGkhTBeMc5Jx/nv+dF2tTB6atFWKaGaSytbSbzJ5ZCkqKhUqxGRyeDwCPzq/rdrLpUlv50bYliKrghgSBg9Pr7UlrbxDVbB/KjjigkMsjBcZ44J9SOn41pa1eQy3+m3lreMsUG8lhDnrkH5W4J4AqW23otD1IQoVKXMnZmVpFsutvdKgn82IoAyBRjqCDkjk4qfQLryfEl7YMIyUUrmZAxG1vQcZI/nVbR7e3tLu7lurplilnQRSLDzISWPCDpTrG2isfE+p6lcyKttGGUYwpbLY4B798Um3bRGtKlRXK3vcd4ltbexNt9nNv8AOXLGKHYRx09xxn25rirguZjuOT6+tdf4hv7bUba3ls/OAVijmUbefb8Ofxrk7pChAGCSOuc0Ru1d7mlRQVR8pRhEZtj848zByCBx+dVlIKDBJJ6jdimJI6DCuQCeRmmklcAEHHQg1odRo2swjW7jQli6oAc8kgj/AOvXX+G9Ql07TZ4ba0NxI+JZfKYkqnQbiOmOePeuDDqXLhihyOAK77wzE9tpNtrdvEyW8TSwyujbTvY5QHH3gP0xU8qb1ZK918y3NPSfFk2iar9sOmXTRsMGPYcH3B96r67qlv4ivWvFhls/LhJCbNxb5uFPTGMn1q6msanLjN/Nt5yck8D6VIL7UPmU3827Py5Y80nE0nBTi4vqcgDGWUEzHcwBBjxgd+9dVr2rySaTbx2lsF3RyI0qzc4OMfKOmMD61ZS9v0kPmXk+ASNpOCcf5H596BfXxuGD3siAdMtjP+eTUuF3cmjTVKLihuk619rtrptTjgtXjto0RIwFWcZwePXBJNeekzJ9pRI32scDjqAa9F+3XmxN15KDn5mDf5/yaVLy7+bzL2dRnGCeR/8AWNNRs2+46kVNJPocRbaXqlxbpPHCoSOPaC8ir/M0+zN7a37+dCxYdQpBz36iu4Ml5wFvLgk9G3Zx2/WmC6uUBH2y5V8jhm4GabV1Yxlh4SVmd/4b1e2m0O0850hkEYUo8gzx/jWt9st+cTxE9gHBzXlEdxdSlm+3XAU5xlhxj69uaaLm7jkVlvp3JOVBI5//AFcf/WoTsrG0YJJJHqdheveSzDy/3ceAJP7zc5GPbj8606wfDurS6vbSzNDDHGshUBCSc9+tbvNUJmZP1NeK/Gk/8TzTl9LU/wDoVe1TfeNeI/Gg58Q2A9LUn/x40wZxvhr/AJGC0/3j/I132lC/OvP/AGba2tzN5TZW55VR6/UVwHhv/kYLT/fP8jXaR/2f/ar/ANppeSQ+W2FtfvE+/tUP4jz6umIXoRnzEusXMEcMm4Aqi4Ufl69a7H4QuD4U1FFu/NcXRzbHH7rn73r83v6VxcSW+6F7csYlYBfNADHnviu2+E+//hEtQ326pCLttswILOcjII9Bx+dXPZHdD4fkU4YtWF5ciHw5p4yHJLx44z1+9171g21u4E2FLMp+YIvC/l2q2h8P/bJ/Mn1R2BcfIF4OfY5xUGk362M7LPczRRMMCSJQXwe3PQY9M1LV0eXXXM0iHnOCMfWoLwfvuGI4B4Gan1G6b7dJs2vGSCjMxJZex555FWvDcUd9rsf2uFXSKN5mQMfn2KWxj6gUoxaZyRg+ax0Wm6FenRrG2sd1tDcxfab26J2k88KT6ADOB61NqQ0XVbK20XTdWKTJIWUyBjHO59T6+naq0Wp6rqvgfV53ZpS9wg2p0RMDIHoOn4VzOm2U1/fxWdkDJNKw3Ovb1x6Adc1dtbnZOailGKvdHS22iReENQiutZ1FAjqQ1vApZpQQQc+g5qxpVvIb+N9JnfUPD9y/k3FvJlmhz/eU8jGc5FQfEbTbldThvmybVo1j3jorDPB/nVPwmLxLPWJrXzEjWyflTjDdR+P3vpTEtKnJbRamPrFium6rd2jbtkErKg7kdj+VZN5s8s4DDI6Gut1Vn1XwhZardYN5HObZpCOZFxkE+pHSuPuiNhOAc9z1NDOZwUZ6bPVG94OJOj3g4G2eIDPP9+vVl/5Akh/6dR/KvK/CKKNEuWUElpoyfbBevVeugOeObYfyrN7nu0P4aOGBy5weQO4zSBz26ZPPWqz3sUV6loxYTSJvUbcAj61ZAB44wBke1B0FCZFe6kVymcg4yw+nToT7UZizIZjHu8xchVb8c/hmpH5upDtkUAgZEgUke3+HHWmymQo3lrPgvncHAB+me360Aa6PvYDG3AznpUocAAc9c5zjFVdjcnjAHPOacOBjOR60Adzpn7zSbf6muK1QY+3MRkfaIQQef4v5V22hc6NB069q4fXCRZ6i4GSbiPGTjJ3/AKUGNT4Wef2/ruGTk85HXr+dUPEgb7VaB8bzApbjHdqu28gYBQOTxjHWqfibd9stGz1to8c5/h/yatHk4X+IZII5755z604dhjjPYZpgyc/KOtOwcDtz1Jqz1h+CQPm+nHWrdtbjyDM0aOCcHfJtwP8A9fFUh3PQHrz0q7YXDRSCPewibIKgZxkdf5GhgEtsqfNGwaPqQWBK/XH8/wCVQjBzz36Z6Vq337uSVSgZ1XbICcYTsR7dDnk1luhjco2AQcdKEJm54S48SorRiRGmUEEEgcPz+HvXouriKHRpj5anayncFyf88Vx2kbbW2u7qBcXKvGFc8YJD8/hz+Va76nLLp8ls8rPHcBQzEhdoHbA6nHGeOp4rnmnzJp2XY8/65SjRcJbvY5t/NI3KykE7iRxz/n/OKlycDKDPfJxiraREuQ8SkA/KCOlMeWGK2nO9V2qSAD1PSqv0PH9pzOyRTJBJURg8ZPOajMg64X/vqr1xp04QkRPvVcsBjlu+MfQ/kaqTaddFEl8iTc5JZQoGMf8A6j+VXY6FRmujK0jqeqr+earSOuMbV4Oetap0iQAL5bmRm68EAf5/lVJ9NuCJCbeUbRkAgZP0qTaNOa6MzzJsPAUduTVa5jOBtBbdwOOW/wDrVZkjYSPG0LLIvVSMEfX8waPmVjLkmTGQwP3f/wBVGxrF8j1OfcgYJQjnHIpySoDyox9K2Xu7kpsadmjZt+0gHJxjPPtxUfmNg4CqD1AUc0XO76yraox5ENw/7tCRx0HTtXb+F7y6/sSLR28o2c/m3DIV+YOg/vdMEcYrnrUu2oQRFmKGRflzx19K67SbayfwvLdC5b+0ILlokjD4IiY/MdvuRjNUraMuE3J6Fq3jQ2sfLjAG1iTkL37+tTAKYXkUsZFYEnHX/Pp/+qoIpTGhDEHAwRyCc/1/pWjCjRoqr9w7SSB0yOv4ntUnQQhw8chBVZZACo3cnHp6Gl8tTGcqMKMlsYz6E+nP6CtS10TdZxzmVfNuLhbaNmywJPOeOg/xrO1S0l0vWG026e3dSgbMfTHUgg/1pAQW8azAHcuGO5Nh7dPxyB+fSrOF8sqwLsuACRkEdfxI9KjLmSMFX2qBtBBwfpx054/D8aXZgvu3HDDbtPU4PX659qAHPLFdCFpreKVYl2xsWZc9+3fJq5YCzmm8lbRkZvlJS4kHzfj0qlCHjQxpna5G9ipxnPp9fTrVvTDImqjEcojLc4B4we/scdKrUWiJNU8OalZTH7LaMYBjKK4lIJ5z2PaqNpb3F1fx2kmEkJILSKykEDuPXjNdrrXijS9Lnfz7kPKyqRGgyRwfw9KwIvFFtq+q2iRIYwkpcyOw5+XGK66MeZWlHTucGIlyO8Zu91odL4NtnsbK6tZihljmyxQ5ByMiunrnvDU8dy+ozwSLJC0qqHXoSBg/ka6DNcrVmdiu1czZe9eH/GUg+JLIY6WnHv8AMa9wm6mvDfjGf+KotPa0H/oTUdB9DkPDn/IwWeP7/wDQ13umPdx65IbPULawl8pgZrjG3Hfr3rgvDf8AyMFn/v8A9DXb2caSayRJpTap8jYgQkYPrx2FQ/iOCt/HXoRSPL5+Z2jlcMpZ4iCp57Y9K6z4SmEaDq6RzSm4W6O+JydijPBHbJ5B+grj3/dhFW2e2QHPlMSSOff8/pXdfDCOeLwvqaMIWtBdttZCfML8bge2Bx096ueyO6HwmfDJrX224MeqaVHguOHjORnocDNZ+h29uk0zTs7OxClhHvzk444P4dM0Omn/AG24C6BezEF87pWIBz1Hy1T02SSI3ESS3KAqPljKjA77ieB1qWm9jzKr95XHajbA3r+eN7gAbipTIxxx2GMU7TJV03UIbuCMCSJs8nqOhB9iCRVW/uZkuiolf5VUYmUBhge3GB2x2qsbiSQFWlXaeuBjNK0u5xNtSv5nfXfiWHwrex6fpthCdNaMTsSxy2/ng9OnGDnpUfi3UYU0Oxl0JY7S1vtzSyQoEYgfwHHTnPHtWBa3Vhrlhb2OpzNZy2o2W93jcpT+44/kR0zXXyWemaF4UgsNTUahFJIzxtEMAnrkNnjr175rRu2rO2MnOL1VraHLeFLy8h1i1RWka1nkEbQt8yyA8ZIPp1z7Vu634xltb17TRobdLWCQI+YwRKT147Dt6mp/Dd5o39pLFa2NzHcSgokjPv28dvT61mz6Pp/h26Z9Ru1vpUkjKW0I/iHTeewzzikncUVOMFyvfdlXxrJHbz22k2cfl2dsm8RA9ZG5OT7Aj864u8yQwXk4yTXQy3Ml9qD3Ex3SSvKzHt/+odKyZbNntQUwcxmRgfbjFUc8nzT5kaXhCTOj3ag/dmjB7f3zXol/4k0/RvC8DXUgZpbcLtU5PAx/OvJvDWpjTJLiG9by7WZdzHyyxDr93GPUMRW/c3Hh/U4EF1PFIEPyqzFcflWbvc9qhOLglfYqv4201HOI3I7Hbgj/AOtSDxtp3cTevA60h0nwo+Pntl7HMzf40g0jwmOC8Ht++b/HrSN+ePdDR4s0h3LNbtucfO23OaefFOiuAnksF3A9On4/nQNI8Knjfb56/wCub/GnDSfCWR+8gwev75v8aBc8e6J/+Ey00nhZODgcZzViPxbpLnLO4ycnKZzVMaZ4TyQJIOvP75v8fxp403wmCMSW5B5GZm/xosHPHuj1bw5qWnahpUX2CZXRByOhBrkNVQS21yB8264iI98yVk6bNoumF30+6ghMg2sRMTkfjUt14gstkNnbzpcXNzcRnahysaqc8n1JwMU0Y1Jx5XqcVZIXmTIxIjAnPfn+dUvEpY39uG5C28YABxn5f/11pQlgS4yueM4xt74/DFVPEtnKbm0kWMlVtY84GccVSPLw8kqmrMIHI47njinHAH3c5GR70C3m5/dMRjJwM4p/2eXA/duOe4qz1faR7obxxnsOOKlilaE5XGSCMH34o+zScZikBPPIxmnfZZhkNC4YHJBGMUC9pDuib7YGjMUkYGRtDRjDAdcc9R7cVE8iSzAru2hQo3cZxx+dL9juNgJhk2jgnHX/APVSC3lPzCJiBycjpQJ1I90djY/8eUikjBaHPOf+elSGWIEDccdeBnNRacjf2bclwVVGhGe4B3j8zmo5Zd6FVdhCpwGPVz/hWTV2fOVoqUif7TEjkhmwQRnFYGp2KiD7X5xdHlKBCoGB68H+grf8q1Ojk7bTzjHkEPJ5v38f7ucfpWXqW1fDcC9/tBPXOOtCSR3YGioTSet1cx7i4uYpCDdSPgAlkkJzUP226AGLmbj/AGzSAKZAGOATg44p7xRIB+8PIyMjrVHtkZ1G7GCLmf2/eHimfbbx3Ci5myxwMyEf57U4wxY/1nOPTOahmRUxtbOc59qBFrTjdyXN3B57DdE3m5y4OBj16gcZ5qKGeXYP3h5GMgdKt+HuLybg5MDYxzj/AD+FVIkYgZGSozwM/wAvepe5yYhLTQcnJGBwgxmklITGe/QCnJIo3Ak5z6dKilVgS5xg+vap3ZyJXlqOsDjVbdv9tT+tdLpUZjSW58lmizNGz7MKGJ4Bb1PXHtXNacP+JlAOuZEHP1rr9IvZ30q40po4vs73L3Ick7gycYI6YNaq6tY66aXV6FgTKEK4IUEEBe/cAEdM1c8xZo5kfAU8grwT+PbPSs+3CRRgZznILA4x/h2/Kr1uiGN2mKsyZwuTwAPfvWZ2kg1GSK1VYw6bZBIoj7MOMj3PNVd7X08l3dOzSk4V3OSQOMH1xkc+1SPDkq8asRGmMgf568/55piFY7l2cAkgbO+eevHbpQBak82NxgK24Ahhgew49uuKarnyyi5Eakguh3Fm/r6Z7ZpRITudSNmSTgYyv/6+f84p8Tq9znH3jjaRtwP6dBTAbq8UHk2h1G6eEiLEcUQxkZPJz0JOR+FZ5OmxnKLeTIvOHcnI/DpzWxrU01xPZFfIYwAGNZgMhw2eOxH6cYqaXxLrs1hPGyWJjuE8klcA4II4x35NdkLciv8AmcFS/O7L8DFt76BJlSDRHIZgDI8eQvuSR06VehmjLlhCq5G4/Ljafb26CoP7W1mKGG2m0+NoFUBpEbkD+916/wA6tRoyOXIIQL8mVGe/TPfg/lXPU0dl+Z1UtVd/kdx4KAGlXAA488/5+ldNmuX8Dn/iTS5JbEpG4966eoKluZ03evC/jH/yNVsPS0X/ANCavdZRya5XxV4M0zxQY2vkkWWIbVlibawHp7imG54N4d/5D9n/AL/9K7e1kij1ndNqsmlrsIM8YJJ9uPWto/C7StJV7+3urwyW6l1VypBIHfjpWRo4u5PEIXT7G2vZzGxEVxyo9/wqH8SOCsn7dehVzkj/AEoXQJwJmJG4fj+Vdd8I0t/7A1cokyXP2oiSUg7CueMdsjnOOeRXIXEUqSbZrdbZ8geVGMDrj9etdp8JPNPh/Vla4jeEXj7bcL8ynIyxPoeBj2NXPZHdHYzpbkpe3CzeK5I0y4ACyHv93nj2rJtibeOTyG3I5+ZiAd+Pr+dbgttQGp3Yg8M2m5jIN8iEZGeuS3XvXKO5idlWRk5yVQ5AqbN7HlYm6saEh+0SbpFV3xjJA4x/hVK4aN3KxhAijDMBjNayanZywwqVmJhgAkxGDuI4P4HP6e9Vrz7Ne3pntoTDakDERGOe/wCH/wCqhK2rZySikr3uVrW3EuGcYiX7q/3v/rVs2Or3NjvjXypbRx81vKu5D+HY/TFWvtNhLZIhUiRVT5dnHBGRn35596ujUdMk8pBbtK4lD7RGAZMdvYHp+tS3dlRjrdSsVF1+VIJUsba2sdwwzQqd5Gem48gfSsOM5DknOXiJJOc1q3KQXUgazdVRYwGWTCdG9+pIxTLzVbA2l3FHEzTSSLJBJs2hQNvyn6YNVDqVdte89jOth+/H1lqOORRbIGPLW7qB6nNVzKz/AMRA3FgRxgnqPxpvt0APb+H/AOtWhi5JJWJjcvEY3t3ZflUMfUj+gIzV7+1rqK5kDTD0C7V4yfp6fzrL5OenuPWk53Ag8g/K3+NDEpyWzL/9p3my7jacN5S4BCL1DAZ6fX86ZHqd2bJj538eM7V9OO3rVWMt5N3u+95WP/HlpYQBpkz/AMQkAH4jFHQpTk+po/bpmRlDlpWC4+UHv/jx+VI+r3QciOXjIK5RRkD8Ov8AhVNIr37XJ9njgeH7MGkDnEgGCRs+jAHj0pgR3d/kdjy0igZK+/0qTSalGKae5a/te7iwwlPcZ2jv+HUf0pjandeWSJWORngAY/Sq/Xjgkj/vr/69RkGIhlJK5xn09jTRhzS7jhqVyX+eUsPcCp11O7t9uyZthGAQAM/j2Iqr5SykFMA55X0qVI1+cGVQoONr55/L0ptoOaXcb0xyDkYVjwG9j7irMeo3kcaos7hEGFBHKj0qKOFShIdACcEM3X9KYU+cpvj+XuT/APWqG0NO2qZK+o3Z+9O5+tA1W9B3C4YkdAVAH8qpTHYQN8Zz6HP9KgeTBHzJyex6UXNE2+puW+r3gB86dmZj12A4+Uj09cflU8mpTmQu07bXkIOQAQuOP1z+VZSWpingSSeNlknMLbTgqQwB7ehBq3HeaejurQTkKxG7eDnHH9ymm2N06j0RKb67MMaC5O9SxZhjAHH+BqWK9vnfy0nYYGSWA49zx19B2pbGTTr+6jgRZFDEfM0gGM8Zxt5IqnNIiZWIt5Q4Zs/6w0NvYwmpwdnuWLrUZ7iMwyXDPbq248Abz/XHP51RkfGCygsR8qY6U0vggkZbGFUdqQluQnLn7zntT2J1erZriST/AIRts/aCvlcKbiPZ/rP7n3v85rCv3J8PQg4H+kNx371b+1SpZGDyrYx4wZPLAcjdn73XrVG+KnRIyBgCc/LnPY0kerg5KVRNdFYxXxzUkyeZCDuXPXAqMjPA5ycDFXryKO3ht7OFUedjukfA4J7Z9KGeqioIzCD8ykZ5HXrxUFwWeQ5xnOSRWpdWySyBAI0ihGZZVAG496rarFEn2eSBQqPHkAf196lO7BqxL4fRXu7gEcGBxkjOP0P9PrUemXK2e9vNukDAc27BScMDzn6Z+uKm8NRmS/mQKTmB84Gf6GqMf3QV+X2zmhq7OTEuzQ2Q5eR8sQzEhj1P196jlJ4LDGR8oqY8EHC9eh71FId+WY7pGPAHaixyp3dx+m5Gq2p/iMqH6c12NlZLJoN3qizMskd60AgGCCH6k9z0rjtOQnUrdQMkyKDntzW/pyLHeliuMrOjsBnHPy5/EjFUvJnRTavZq5ojygBvbOTgPk49eParlvtkmKOWUZypx1P+GOPxFVAP3Y/vc5wQM4Oeh/Kpk23EiEKVXJAVTjPc/wAh+X4VB2nSWt1ZJpsEVzEqkXcbShk3bogMY9/TFYfiB7W519W0mJY7HAXEY2rwPTseTTHmllICZwASMKfpzj0qOR2jcbQuWJBZexHv6ZNAFu2Kyof7q5YOBkEensff2p7vvkWSNj8wIA64I9Rj0x+X4VWMZG1Y8bAN3zDGMe3+cirCSOHO5gr8+4Gf6Zx/+qgZBcubi4H2pElKfIjHnauc/iOc5461a02KzmmjRbe3AJwWIbg+nB+lVRDLkGOJ5kkHDIvT6f8A1unpWlpVrJYzJJII4Y4yGwSBn/aJJ7Cr55WtfQj2cW721NPVfC19BOzadLEoiVQ0KMVBzk8bs+nt1rKtbC9GpR2d6skPmsWLFQc9+CODW1r3jjTonuIrJnuZ3jUBkGVVsHuPr0rKsfEr6hqdot1GIY4yWztOT8uPy/xrqo3a95K3fqcOIsneEnzX26HYeEoha295ab95hkGWxjOa6Tiud8LSLc/b7lN2ySUKMjGduf55roq5Xa52q9ilKOTVWUfrVyUcmqkg60FGVqw/4lV57wt1+leR2v2OTWWXUTdeRtIAtR87H0/GvXtXGdHvB/0xYj8q8XuTsv3xlSDncDioe552JbjWTXYfK8cciR2pnMbAMvmABgcn0/Gu5+EaxnRdZxZlH+0sGu+Dv54T146+nNcR9pMwW8kRS4ILdi2D1+p9a6P4ZXt1aXt1p8bqttcrLcMpHzB9vGD2A4rSSbSZ3U3eN/IS6tdKhvZ5Z5tUAklkAdYQoLA+oPIFV9Okto9StI0CmJpfn3jOR7+9NuriP+z7cajdMHiiklCrC0m+Qyd8dCcdTWLb+I9Otry3nkX5Ufcdo61k3ex5c4zm7paGpqviBtGs7aW4XzGvN4CxJGoVFOOSV5JPbjpVy2uLqa8js1+z72dVVmgQcHBBPHXB6VmW2r6RdJ5K3TSqjeYqS2SyBD3K/NxmrXmaeHLm9u/NLbixt8Et1z97r0qUpGmIcOSKUWmmr+glt4hF/eXVtYxCJrVS2944/wB6obByNvynnPf061fm1sabo0mozxh5ElWONYo0XJIz128dDVWS5059+ZmjeU5lZLNUMp6/MQ3Prxjnmnx6hYpayWxuPNhkILJLaBgSPq1Jwlaw/bUFXUrWjbX1NDT7qLUo4ZY41WKe0kkKPGmVZdw6gDoRVR9Ilm083JePiNXAzglc7fzyDUkerWcbGQSszrbtBBGkCxoueOcN0GTTX1dpbbyJLmN0woIIAxj09O/51STilfc5sTUpTk3FadDGIZCQR83Tkdf/AK9OhhkuH2xjJUEkkgYA9c9qtTC3mQ/vU3gcc9f8+tR2LzRzsLZDJLLGyAAZyD149QK1TucaSurjRYXLhMQthwWXkDAHf6e5qKOGSaQoi7nwSVzjIHJ/ICtD7YEhjeazby5YfIZ923zFXGMccEbR659qr2G4XR2W8kp2OPLj6rlSM/QZzVFOKukiOa1ntfKaaNo/MXcjHow/yR19abBbS3G+O3jZ1xuZB2rRurie9jgRbOQARFzgbvM+UJvHHAAQf41BYpLbOzfZp3llgLROnBUf3unTGRn3oHy626ESW927xzLExaOMMpI6pzyPXoenoasm2nmm8xrQMyx5G48qCODjPXAJwfyq3ba3M6N5dmXSG38srH/Ag9eORyeeOvUVH9umge7b7BOs00QeXLYDYBG4gjp82cD86TS3Lsujdyj/AGdLIk0ltE7wxDc+Odn+cE/hSSWN1E8iyQnKpvcEjBXOM/XPH1rS0zU7hLK5U2mUkiAZwu0bcMN31PPPfBqve6j5j3UjBWiuE2KqEDyvmDdB1BIPp1pJ9GQlFJXbuVBptx9nM3kMI0XeWY4ODyD9Mc8emaqnG7AIZj1PXFbU/ih7mCZJY1DyxrGSnCnCleR6c5wCOg7cUnhCwi1PxLawTNujUmRlI+9t5x9CcVQ+SMpKMXuWdN8DajqFstzJJBZwNyGnHJHrj0PviubuoRb3M0JdWMTlNwTg4OOPY1t+Ldcn1bWbhJHYW0EjRxxA4AwcZPuetZOmWX9o6rbWrOVSWVVOT/Dn+dK3c0fI3yQXzLOmeENR1qA3MflW9r2lmG0N9B3HvWFqdtJomsSQJcq8tuwxNEODxnI/OvSfGOgavq8iw2c9vBpsEYCQmQpnA7genSvK5Ldh0K49Qal2R1SgqdlYms7me4v7OOSVmCyqFBGcZYfzrXvI0tr9Y0VQrIrfMc8lc5/M1laXZSvfwSZKxRyB2lKsVUA57D2rf8W6be6TbaZqLCJoL9YoVA+8PkH+HtTg0mdOHWrdifw5bRXN1JI6jMRi2nrgmQD8sE1RkPz93IOFGMAVe0Etb2t+8JVZIo43XIznEi9cVHdWJJWW18zy5c4RlOVPdcng98Hv9aqW5xY+Lc00uhQJIcD5ixIDsoyRk44Hc81U/tmKIlY1do1Y4baOferdzCX2Iql1LYKkK3A9QxC8HHU1zzuRAVVuRwAe1Z7lYXDU6sLyNqPWjcOIEWTdKQoUKOSf8aq3V7EbMWbEi4imYuhUgr29PWoLGXfdWmSN5lQlQAcc+/8AI1p3lnCl5cjyfmEjAfKq7efQEj8ASKasjdwp4RqS1uYh6+3rTCMflzXVpJavbEDTLPzAOflJA5/wyfwpklxYkvnSbEYACKQQT9cd+9O5ssZSfU5TjkfnSHHtiuvjm0sufM0u12rgEdM9P/rmmn+zY40dtJt9pOFySc9PftzRcaxdNmFoNzBZ3sktw21fKYKevzHp0B/z3qzpaRzF/PFo2FGDcSmMD5h0x1PX8KHswZ2lSFYgwHyoDgfn+dTmJLcETCRnYKyBWxj5hnP1XI9jUuxy1MQpzVtl3M65iQTyhQAAxACHcBz2PcVALdjnYCWPVj2roIksQZnuIr0wlHMSocFWx8pcnAIBx0xVe28r+zbVClwbwF/tEn3o5B/DgDuKL6GV3yuS+4yo4nt3V48hlO4MK6jSL2U+FbrTZIGBuJvtKzEjBZMZXHvnOaz8RkgDrnHIIrV0k2Ehkg1NnjjkjKRTg/6gnvx0z6849KlNLVjwtdufK9LjIbdk4mVS6rhAH4P09T061cKfIfJkVSCFORnHv1x3Joj8FabETPfaz/omSQ6XOM/4n6ZrHOk6dNqEwtLm8jsUjJBlmwz4HYY7nHFJSTeh6lWrGkk5Pc10hTJy+xum3IGOfb1/rUsls28bJIsg4O1uufft3/8A11hXWiWyQzOLy5cqUWNRODjKgkn1A5HFWE8OadqUES6fqM8F9jDxXU/BP+ycdDQ2luTSrwqO0XqbEKKw3yXClgvGWwRngAfX+npT3DyJuD8KdoxgH0P4/wCc1i3vh7StJsJFu9TnudRbhYrWfIU/7RxwBVVNJgjsJpPt0/mwqhKGfbnds/Tk89sCqTT2KnWjB8revkdBc2lveSRm8jDNHHsXDEAjJ9OpGT6U3+yrO3ybe3UKoy2QDn0/A+3SsuHRbE7PPvZ52lXciG52gfiOvfkccU4eHrZ9TuIku7vyIwGUCbJySMc98c8022kZzxNOKcjc+yrHMVDKiKcnYcYOPXsMY4702XEl1GMtzkHnB6/yJ/lW9p/ww0iewilmutRaR13Ei4/+tVuH4XaHbzxSrPqJeJg65uMgEHI7U1qbRkmk11NXwpbvZWU9tMjo6yk4dTyPr3/CuhrNskuYpriO4LNGTvRiQQMk/KOBwOPzrS/GgGVpepqpKKtydTVWWmMzdTH/ABKrv/rk/wDKvI5bZZdSjVwvltnOX2Z4HU4Pr09q9d1P/kFXf/XJh+leVXW0SAnOVUkY+i/0zUvc8rGO1VPyMu5kS1Kw9jHu59/8eK1vCN+1jqclwLdpy0DKsadSTxn6DrVzThot1pkkupRxfaJJXj8wQvIcAKR0PAGa47W9SayvJItPEKwoyqrRoy7l2hgcE8ZzyPYdKu91Y7YKTpK29jt4rkaLZzPcxXXnXNmY41jjJIbzG6+gArzOWyukCA2Uz8HrGePmNbvhXVxc64keqkSWZjcyAD5hwcYJ6YOOa1dItdPudJkl1O6nhuUkCxiOUjeDnk+hHA7CoasiIOpTSi2jI8IXh0HW/ttzYXIhVfmUJ15z/Sun0TV31TxnqeowyMsTktGGjBIBwOc9CAB+XpT7jTtEj8PXLRX88l2y/IssjHEgYcDjoVzwfSqXhiKPTTeSvhpGT5VJwTgjp69c/hUttq6H7aLqKM2rB4/1meFrGASs8jktuKAYwcY469a56XxPfxFtz2gAbHyWqsPwq94gvBqeu6fKImi+zsVbeQdxzkEAdsY/Gucmj/cIdyht3GRnmnBNq73N+Sm22lc1o/F16chZLXnnItU4rVj1GXVJrUhYzcSIqsqAIGYZGQOmSCK4mMsXLMcgDjA6eldLpyqfEHhpWUMht9xU9/nk/wAB+VN2s2Z1cNGrHltbU6WbSNSskU3NvsUlUyJAec4A4PqRV+HRLu1H2qeAgRhidkiknIP6jP8ASqPjRkTTtPEcKqGvV3hDjcMZIP4gV1EUMLiUGCMkq2CBjFYqrG68zn/suMG5J7I464uYpPIJjYSxxiNs4KsAMDAPQ9+aTTriK1nMsgk3BSI2TBKN2JB64/ng1bsLaG/1O0imX5WlRHXpkZwR/wDXrb1JtEt9WuNLtfD/AJt0rmGJvtDYZu2Rn3roi7nnRg3717a2MiLXUiMJa3ZhGhDqTn5sKBj0A2A/XP0qOLVoY5Ld5IZJJYIiu4lRu4AA6dAAfcZ61uQaLpmnTiz+xXOt6mg/epC22KI+hI/rSXGkaTeM1rcWU+g3xUtF5z7oXx15PSqNfZ1LatXObsdSWySUCFcyxeWGHbrzz35qW51Zbqa4doisbwGKNEwPLJIOT65IPPvWa4wSuVJBwSDkN7im9CCDz0BPf2NBzc7WhuP4gSWGQNblJGgWIKhBUgBx36DDjpzxWLG6K4MiMyg9D3FJwMkA7R1Hp/8AWpN7A4JLBiNpzikxSblq90TC4iyMwnHOcCtHSNZi0nVYLyOFyY25GeSDwR+VZ8UaS8PL5fU5zTjDEDxc5/EVOlxRbi1JHaap4Yh8QltT0CWGdbg7mjZsFWPX6c9jiuNii+y6g8ufKnt7g4BOdpXn+YxTYswtuhvHjbplH2/yqCWKJ2LNcFmJySSDmhNI2dSMmpJWfU6/WtEt/GezUtLuES8MYE9sz9wP59BnoRXnmrWUukalNZTqRJEQGXOcEjPb61YMREyfZ52WQgksDgjH09apXMchmczzM8gAYsSTnPrmh7HU5qau1Y1bWe8j0D91rdrAhkGLVyA2Rxn1wBxXQ/ESaI6Z4WQ3rvclImaANlCu0/vBx1JyM+g6VzcVuZPDw/4kPm/Pg3Qk2l+px0/lXU/EUXX/AAj3hRTBElrmLHzEyB9n3cemMc9c9qS3R30dih4bM0R1NoLlbV/s4KzSnAHzr/jitaS4uZLC1E2uWt5H5uTbxgbgcNz64H9axPD7kpqgNs93m3AMIJBb519P88VpSDZYWrf2A1kPNOLosTnhvk5559/SqnuYYm+voZX2QzH9yrMWYBgF3DJbA/MnpUT24aCVWt5/tM0X+imEbUWRiQu71zg//XrCe4kGpXCiaRRuBwrEdOf0NT29xP5scf2iUKRyN5I46ce2T9MmpVtzGGG5Ie0vra9jUmFvbWloGjlWdIsXPnsuGk77B1A7f0rWGm2sdssn9q2ylrNbgIFUgEtjb+A71z2oi+lsporSKCWNrcmQyAblAYncpPQ59PasPE3kAOs4UQgNkHHl7s/lu/WhJPUdHDxqrnl16Hb60lna35tg0MskTYE0bYWVCoIJGeDknpVaHTGumjS3OZJJNiKeNvI7/QmszQUvpL25EscDRtB/pTXX316/cz0bp+lX3lmFkI4WKODu3AkMOnTH0/Wk9GctanGlVTvdPobek2Oiano4RtPBubJjBcMf+Wj5JyD3GMenpU/9h6RIPL+wBgvRdx4zVDTPEEVloyR/YbiV4juupkA5JLYJP0IGT1pv/CVWEbmcW1wXY527hxSa1PXpTpciWmw/XNJ0+KfS9N0a3VL+RXmkBO3chHHzexU8Vg3Mm/yz0zEDWlrmu2eqw2b2sEsOoW+VaYEAMh7ZHPByfxrFunUuvA+WMAflQvM87FOEqnunV69e6U/glYnlje5FpCgVScj+9079M0nw2udJs7dnl8tJ/tSeWZMgqmPmPPam69oGn6b4Utr1YU8+SK3JLkjBk69D261X8J2WnX5uDqCxyJA8QHlOfm3Njnnp9PWne2h3RVTkVkijcODc3rbsgzcEdCNxqO2SW5k8q2hkmk6FY1LY+vp+NVLq4WGeeFMD9+UUZzj5iB+Vd0Z4tF0xINPljRI4t7MOWlbuOO5/rWcm7pI48NgnWblN2S7HHXUUllJ5VxbPDICcB025+nr+FQ+bt7120N9a+IfD1yNRxGVOFR+o9GU9QR1rzfzZWBwNwUldwPXHBoTd2mGKwLg1KLumX2uOCc4HfnpT/sd5cW5nWyneIY+cRnn6ev4U/wAPRwPeS3F/tEVtH5gVzwzf/Wwav2vj63dz58hCqcggkflildttLob4fARcFOo2r7WMETLk44OeeMf5NWJrgeXqHPLW8I/lWl4/s47G4trkMhlkRWZl48xWGQT78frXISXM0ouGjjkZNihmVSQMevpVU3fcUsI6U2r3T6nQ21yvn6dyOLVgf1rXsbpTqV2AR/q1P/jwrghfSJ5ZKsNsZUEg1f0jUmF+SxIDYBJqpvRmdai+R2R9I6Uc6Van1iWrVZGgaja3GjWgjuYXYRKCFcHHH861S6gZyKqOyO+l8C9EO/xqbHvVOG5WYumVEkf3lBzjPT86tZqiyvJ1NVZatSdTVSY0DM7U/wDkGXf/AFyYfpXnGowpJaiZIIUCRKTKJSct8oxj1PXHtXo2p/8AIMus/wDPJv5V5/Nbahc6I+HtBaoPNxkB9oHqOT06HNLqeZi4OVTRX0Kmm6ctxp8ameSKXzZD8kHm7gdo/vDHSuT8U6Ld2d/cRiF3w6MCq5O3YME46Zx0PStqUL5HEYLdiO9bV9oOlwvG9pqksZlX50SYYB+vfvUSmoJtmmErTqRUIpad2cP4P0eW/wDEUFtcrLbwTBkeVgVCjHqelRSXk1ldMGXdGshXBONwB9a7jX9MtbHSUmsNRN2dyqVMoLEEHPy+xx6fjXAagDshkKsDIXPK4zg4655/THv1qk7lpqrPlmlp2Lf9vtsVWgYgYJ/eYydpH6kg/hj3qSXXJEID2rKwHG5z/dA9PUZ/HHvVKPy/swP2Z1ib70rHI4B6ccHNQXSSeYrMAflBJUHApm31ekuiL0Ud7qhuLi0h2rAQ2QM7d3AyffpTn0HVCjK9m5ELYJBxtP8AjVrw25GlatiJn+WLLBM7Pm9c8Z6dD+Fb2g6ba6xFctqd7JamPPlnzQN2AOMH1JPNK9jJT9nU9nFKzOYsvC2p3EhEFjIVYZOGzXT2+lppN/Yvdqy3Nra/ulJztJ3EZ9vmz681vaF4c0ISSteao5AwAkkwHXvxXPpjfInqxAbrUKakjHG4mpSSSSvfoast9bXlsIdRCzbZY5EKDBUg89R0Iq/bawuZpQ6srrINoGCBg7e3UHH4VgeTg8yDII4JH+eaR5fsoCja5ZTlielCV2cSx1dt82zNLTJFj17TkCglpYyT+IrsoLbSn8aTzRyztqKlyEZBs3bex74rjtMlSHUrKSRgsaSIzMewBFWb3VP+J9c6jYvjEvmRkjrj19jTix0asYrXXUt3013Z+CreXTy8bTzt9ukj4bPbJHIFYOoz6jNpFut1LcS20c5WF5BkHjsT1rp4r+G7uje6Vq0Wl3dwim4tLoboX9wTx6//AFqj1O+so41uNe1GHVXib9xZ2oxEDj+Ijjjk1qjapFSu07KxxEwVJpEGAitgDPIrYs9HtbrR1uDcqty/y+UT1/eAbvptyPris57xUublhCrRStkewqG4tzDt5yrDcMHO2lfXU400m7q5sjw8gRg1yRJ9qWBXK/dB67h6nj5f1rLSzU6h9kWRdpl8s7/l74zj3/Oq2TznOTyRn73/ANemuM45+hqglJO1lYsXFiLewjuWZSZGKlCMYGWAOe+dp/SrOnWdlcx2xmLq0pmDkfw7VBUj15PTjNZmMptcNx0I7f8A1qVIlTqWJPIUUaAmr7F6/wBJeytYZch3kd0KhThdpx19TjOO2RVyy8P291HG826NWjDbi2Mtt6f99YHtms2S+lfcTF1Jx+OB/SqlzM0k7S5ZJGOcZwKm/Y1TgnohsSR2zuZmEcqMyFCenH+PFU7p3d5JY42eLaoLgHA4qaTy5tzuD5meQOKvan5J037Ot7PP5agiKRf9XwORleByRjP4npSbT0ZtTaasVbeaAaSqtrl1BMXwbdQ5RR68V0vxBNt/ZXhN83El1sh/fMHEbJtPr8u7PPrj2rEhi1QeG4ylhZTWrSZDMMux9+eg68+tdD8RPtI8OeE98kKw5izbquGD7Tk5z93HGP1pLdHo0dvkZmjyLbw37fbWs18gYmQElf3i8cc81O95avDbpHr11ezCTJgkDbAMN83Pcf1qnYmaOO+W3tYLqUwjEUo3A/OvbI6Uy+1HULbS7cXdnptvbrLlVhAEgbDcHkkA5+nFVPcitG935HNSFk1K4YhjlsjAJqW3lP2mElWwOuRio5dXYEESvGynI8uQjnOe3oeajTV88PPIVwPlaQkHHT8sn8zU30J526bjbpY6OwuSZrmKe0nnjliKmaJsi3AG7JGO5A644zW3DfN/ZTI+nWRVdOV0ZT2D/eOf4j0P4VzthZTXWjy6jHerHH9xo4jlmHuM844PsPyrOGstEWiNwzBVMfyyEgp6D2PWkp9DN0p04J8v3HVPOp1y9iutMk8y7hGFsjmK3yuck+h29O2TWJNfi1hDyEknng5qGPXDcPhLiZZGXYT5jZYehPpU+tjw8dPRI5dTWfZy20FA2OmD6nA46e9D1RhKkq0kmrW79SLTtSfUppLOxguJXlG5okGNwHPI7gdat6vplzov2canbramdSyKcOxA4zweK5GylZHQRySK20j5DgnPbjsa0Lua4RFW8e4/dg4WbOVB9M9jRbU2lhoQdop3NGQ2Cahdxx3sj20dt5kEvkbTJLgfIV7YJIz7VC9zbPFHJOZ9zfLti2nGAPX1z+lOvU0xLm6jhuWIji3REYBY7RwewGc9OayB+8E2ORuwKaV2aRopy1SNK415nyi3d6E27cyMDwBgDj8vauj0qNJtNt51n1T94A5MYXaPcZ5OCD+XFefyg+W4CnP0rtNJhlfRbEb1G6HKqW7ZP5VM3yrRXOqFKL0vY524uhPeMkDMT5hZWfgnGTk+9dFaCTVpdk93DbwmBJQ+1nBZs5U+hGM49q5G2VjqB46b/wBFNepWgCfBq2baNyXQOcdOtCSvcVFcl4p6GPbaCltciYa3GSpzjyn4+nHH1qtJ4ahDsRrEKgsSR5DnJPNWbK8c24jZImLMAGIG4d6k2M5LMq7M53AYyOn5Zp2RtJKas0QWmmixMoj1W3IlXad9s5yPz680R6VbwhsajBknBY27/wCNSJMCC6oNoO4Ywcjp+lK5G9RGgO8FSWGQT6j0pcqTuUtEktkR6jYRajGqT6qm5cY228hx+bVRttDtoZJCdUWSNl2shhkUH8nHI61eDsSGLKABgcYzU9mkNxeRreSlYlIDFVwfy/qfy7UJJbCaTd2tTHi8PWwwv9sydMBRbH/4qpodJtraRmh1d8kYYG1zx/31Uci6vbyHfp6lSeBGd2B6cH9apvq0qOTcWpjx1DFl/nVWuJpdUdrp2vXWmosS6o00SjARoCAPyYf1rV/4Tu8SIDzYT6YtSc/m9edR643mF1iU4Iz+8/8ArVdsNWS9mktksmMixu7MZc8AZJ+oHNHLYLrY9y0mJPsiXIw0tyqySP6nH6AdMVpYrB8JWsUPh2ykRSrtboWPQtkZyff3repkleT7xqnNVuTqaqTUwM+/A+xXAOCvlnORnNcxdSL/AMK3lEABY7gAvBC7jz9MZrpNRP8AxL7j2jb+VeZ6nqOqGFvslvOliqFCwg4EZzxn0561EldpnHWqKNRq26M8wtJCdqk8dgTjmtrU4/DDvAArGRYwXGHGDU+gSTf2HHLDcTD7QzhlVQNoBx39ea5LXbuWTxTq1nJK0kUUgVWA2EhemcfU1LSn7t9RYbDyopT0dzf1w6K2lBNGVlfcmcxP8oAbdgn1OOPauHuMS/ZULkgFgQSvHze3Iz/tfhxV63uZnkihE08cRbBUSsc/rVe00i4eWWSJo2gjPzySDKxhuOfX8M1paxSiqc+aTSuVrq2aGwil3y7XPETLgL/9b371Kib4ZfMRt7AYPXbUh0S5kC7ruPBAJDFjjIJ9O2P1FSzaZduAxmtiQABgMM/Lu/Pt9fbmg29vT7ofpZWyg1GHcy+YI06Ic857844/hz78V0Hh2LSvLuU1ouwIJiKK2c4HUjt1riZYporlY2kBV2XLJ3wfzGOa2JLlwHi3ylCcH94eaTjzbGUoKc1OLTO30v8A4RS0LvIC0xZTsYuQUzyefQVy4vViutxI2iQkcds8VP4Slku9bmimlk22duBEoAOcsDyT9axfFc5XxFcqrOwDYyyhc9ug47Cs0lH3b3M8ThpVGpNJLyN7w+INY1a9jKrJtBdQT1+bGRyOgzXSjw3ZjJVZHx1DxgL+YavHYpTFc7lZ1YjAZG2nn+lWjfXMQJMt3txzmdhntWt2b08NCMbNJnocrWltADHdLLIszxmAAnaoJAbd3FQecqQyFgQGGBXPaHgaTHtGAWJx1rR/eSCTJJjRCwyelR1PDrU1Cs4roWbgr5ke4Hd5KYx2p9tZXGpFLW2QSTyT/KoIAPy5/kKr3jskkKgnDQICPWt7waF/4SWyCcqLg4/79mtkXGKlNRZk6np1xpU7212ghlUAmMENkHntWtJ4cvpLKG+e3zBJtCHzBzuOBx9TW74sufD8OuTLqmnXc9yETfJHJgYxx3FbF0IrnwZaeTG8cEjw+WpPzKpkGMn1x3qWtDf6tFykrnFyeAtdV9qWm5DyD5q/L+tVb7wjrWnWslzdWREUYy7K4bj1wPSuz13w1qAuoho32kw7T5m65J5zx1PpUlnY3mkeCdUj1JnMrLKVEkm7grgDPuc0J9B/Vo3s015nGReCNdmiWRLIlXUMD5yjIPI709fAeul1BssKT8xEqk/zrpPG73EPhvShbtIhyASjlf8AlnS+P5LiLRtM8h5VJbkq5Un5R6daNAdCnG/kcnJ4Qv472GzkhdJ5xlFLDDY+9g+3FY17pV1Y6kdPvEEc2RwWBxnkcivWdSVzrnh1trcGUH1/1dcR43/5HeL1+X27CgqpQjGN0ce0OIWlJO5ZfL471qapL5ugiVWzKQFlYDtx32jk4HGT061ny5+wS/8AX3Tr65SWzeE3c0sYCmKJxkow69e3UcH0qW7ExaT9Sso0o6TmeK/FyH5lQAxge2T1P9K6r4hRwHQvCjx2ThikKi8YDlNpxH9e/pz1rCilvE8OxIusWSQiTcttIE3KfU59P610HxEc/wBg+FA2oK7gQk2ybcfdP70Y5x29OKFuj0aK0+RzlyYP7NvRqDTLDsQEQgFgd49eK56dNPMEZsYrtWJ/1ky4Djn0OMjgcV1T+dHYXhtbiCGXYgDTFQoG9e7cc1z2oXV19lVLjUre4AcFoYQuFODg5HB4J/OqnuXJaMNIsYby7sLeVQY5buOOUnj5S4B59xxXX+LIreKC7VbW0XyrgRpsjAAwrfyx+lct4ZYS6tYBmACX0L8nGPnXn8s10vi6USW1y29SJLslVBHIw3+NOOw1qlc5FDJDHtjdk3DJ2NtFbPhqwt7m2v5JreCWSGIMm+PcAfMCnj1IIrKsrJry1jmbzUVj02Fvxq1pmrHRlD20azJcRvG6scZG8EEHscr+tCtcpq6OnHhm0sPibDA8afYJMPsOMA+Tub6LlhWJqVhF9lbesyw5O19hx1x1746VJqGtya3r41R0ELy2yoyIzYGwlOD34Ga3tC1/T7G6sY9SmL28Af767xGWYHpjuM+vpxWUlrc5K8VUqKN7W1ucHpUr6bqAksZ90u0oqmIN146Y61q6/q+peI50i1QtJLAGVVEW11zycgDJrqLHWtFSe58+VVjlgkWM+SWwSOD07cVheICmpeLbi90+/wDIid8rdgMC2FAJ2nnk8UoScld6GlVKLS5rnPyaTEmnRXKXasWlMZhzhxhQckehORn2pJIwkkoXoG4xx2qxdbRHGychstkjGeev41ftLK3udOuJpY4DKZG2l3kBOB0+XgfjTZmnOo7Jlaz0RrjTzeLPCimTyiHJyMsq/wDs2fwNad1pF5FeXKm6sWktYleRnOMDkAfhs/UVyB1C5Sza1BXazb8kfMpB7H04H5U6bWrqe5lnkEJaaMRkYOB05A7H39zTt3Nowsld6l+3OZIbl3T960uQCMglT1Hoa6Gx1K7kn0zQBOTp1xbmdocA/vBGxznGeoHFcZp6hp4sxndlsPnrhTx/Kus0gmHxR4flYLg2TkZ9o3o6lQSizXQR2Ue0glc4LlccD+uTimfaI+hDDIBUMO+cn8Opq1dXg+wSQqYlkkkSQOx+7gMCPoQ2M+1QkgaZMvkJOUdCJ2J/cduh9Tx+FM3Kz7C4VFz1JXOc9/zp+S4XbldxwOe570wBgQ4KoAdpwM4xxnPfOc06RyCMSL74PXr/ACx0oACAkIwrHnJJ7f56VMhCEhItu1uGJzjHp+eaiSRinzPnbyF6Zq1a2rTXUMULqXZyq7zgE/j09fwoA1LU8plP4gWLnGDz/wDW4/nXY+HrS2ut4nhjkDHO2RQ2OOnPp/WvMY/FtqC629rd3ciE7WRMIff6ck1Zt/iHrVio+w6UEGThpFZ/8kc0CZ6RqXg3QNTmmSbSoFZNuGhHlnn/AHcfrmvJ7LTY9M+IGvWltu8q1trkRhzn+Hv+dO1Lxt4s1Ny7SXNuuMFYAIgR+eazNHkubLU7q7vI5D5trNGxLh2YsuOec9e9NaCPePCx3+F9Pbjm3j6f7tbFYfhE58Jabjp9mjxnj+Gt3mgTKsnU1Tn71dk6mqc3emBmaiM6bdD1jcfpXJ3sYl+Hs88ryCWJfJXEhA2hsdBwetdXf5+wXI/6ZMB+VcRcarHa6e2mCMywmJ0KrKpRmJ4c9wRxx7Cs5p3TuclSajVd3uino99HZaNbwbdzq8m5t2OM5yR+J9c4rB1q0jfW7vUo5AFvTvEROWjz1B9xgfnW2NHa/jD+TLG4GCwwFcfQ9D/OiO1m0QXDLA0/mgAMcHAB54+mKiM4J6NXM41a7ik1oupyttbiO8hfcCocE5I45q4ltF5N9I8gHlRg26jjzDk/yFa2q65Bq8htrW2Fu80ibc4AUAf/AKz+lRvplta3gS7vmeHy2YmJTu3A4x071s3fUiftKruldIpi2hj1S6tZ9TtxHDbedHcKjFZXIBEY9+SPwqBYU8/TBPewpDeFjM+0n7Njj5vX8KZdPaR2tuUmuvNaJmcGDhTngZI9KqSSWRmIa7mcKSDiPGcOAPplcmkNYd3u4oe2mm70dr6NizQ3O1mxgMgYD65OQaa8PmEsNwzzzgVYtntwhSC7uhHI21lEJIKl8Z6Y6AGrUS2oubRDcXL+ZlW/cFRH6duQaE2jZqrFL2cUkSWNzBo6Ld2zKbue32TKylgCG4+hx9awNfuY7/VZboHAYggbduP8kmuns9DutRgnaEsXiVmK7MABfXPIzWZJ4alurM3hk2RgEqDGxLEdhgc/y96m13cydSqmlU0TOQwRcjrgdfaproh0ATcTnGDnn/69W7XSr+7vZEtbR5mVdzADoM479ulTXOh6vuUGxfOeACD7+tX0O+Ek0mi9osix6PFvzgMScDPetvTrH7bpssskzJlXkRcY3quO/oSSPwrmdKSS6Nvp0asJGchiRgjnn8RWzNpF3pmpRstlcz20Uo3O8RCumQc7Tzg8jBpaXuefPDOc3JK+oovGJBITcE25xnj/AOtU0UrxkIhCsDkFDgg49fWtxLiJLaNhpRD7QGjFmfQ8Z/AD8RTJbqNI0SHR8bjuK/ZSMH8fp+tHMkS8vm+pktKLmZnmlfaehYlifxqz9vYAKt1LsGMLvOBj29qeIpdT1WAR2UsdmyjzJIoM7QGbJ2jk8Yqx4l0GTRJVk8sC2uE3xeo/Pkdc85+tN66nJVwtSF5Pa4Jf3rlVFzcszEAKJGJNQXFzeOVS4NzhhuVZSRkeuDWRYyXksEc8ThFMhUcE4x/SkNxPNdG18w/LHu3OSeBxRyN28w+r1LJO93tqaFzqLviOSaSQLwAzkgfSrdn5mrCOOea48t5VjVt27BOeme4wPwrmLmV7SdEkG4sobJGOP8K1rXSru80Y30CswLEOVAAiUdySeM5H59qGrOzNIYWTlbr1LF7c3ENraXf2i48yRWG15DlcYGV9iP5fhWbJdyylJmfe8fAZ33Hnp1rS0lDDGiXdh5ro2WKGNwQWU4yT/snj3NTROwSN30rdMgX5QkZAwU9/RT19TSudKwU2k27HOy3GLYRFeZJfMBBznHFVrhxzzjPc1t30bzWzRJprJOy/J8iLlsJ37dCc981VTw3cyWu24jnhuWiaZQy/KdvPB6EYH5/lUvUbwk01rsQokf8AYAdtDeX95g3iSEbv9kcfyrrPiCH/AOEf8JbbFI4cQgXBYbwdv+r6ZwBznpk9K4qC8hj0dVGuXFvMXJFuA+1R68dzXXfEKW3/ALG8KD7bNLcCKFjESdhTb9/B/iJyOucDpVLdHXTVkYk7RPpV6JLV7pAikojFWPzL7Hjv+FcxehRCGi05rWPPyszbmHXqf8fSup8xxp94zXv2Bti5nUHI+dePl556Vyt/IjFiNRkvZCQWdt3zcH+9zx0/GqnuW9i54akjSeUTzLBG0MoZz0P7s4XnuTx+NZ0b7EyXIK9SBxx/nH41LpieY/lnozqvPbJxSm1eS5WFYyxLsxUDOAO35mhbAtj0fw7Ya7B4YtbcaDdvuiO1/MjVSGyQeWz0IrzS7triyupbOQOk0DGORf7rDrXfadrXjO2hZLW1uzGB8qtETj6Z7Vx2vxanb6u13q1tLBLdkuwdCu7HfFA7iaQHFyqFmOFIAJ4Xk9P1NdFoGjrr3iK30+dXihdGZpUPLEYHGeMDNYtra/Y9bFq0m544lMhX+Biu4r9QTg+4NdPbWUogSd5p7cRxStAqZXaBjuD0YtjjPNTI5K1SMKibV9CfSvBVnNdSL9oumMcTuAZMhioJx+OKy9bSPQ/FU9vDYC5iRgBbAsCNyg4yeeCc0ttaalfZ8ia4O4bSA7AY9+e9TSeGtS3mZwzyEfM3mZY/iawVSMVaT1HOpGq1KEXZGNfRLsRVDBVyApOSMHofcdKuW1xaW1l5MhbzWZ8gOBj659f6VDfRy25WOSJlCjkN1qsbY3l4Uj535IYg88Z/pWujV1sYU6koTdiouk20mnyyNMBLliibuVAI4/HcfyNQxaVAizid1jlUBUWQlTuOTn6DHf1FbcEegSaDHLNd39vqY3lgIN0ZIztwe2eBnnrXMSXkl/qST6lcyN5rjzZcbmC9zjucfypq51w53q2W7NW3W8UdwzKodjEQcKdpyfyxXoVjY2cnwpF9JAjXsM3lRT4+dQT90HsME8VwyLpm2M2T3pn3uPMlQbGXDdPfGD+JrctL+dzpOircSGwuLZppLcYwZNjEHpnOQKL6lwvzamlCJnsy6Rq0aqu55ABtJOBz1zkkcdx+NPvLj7RZmVoslRHHvjOUGP73qSAT9eakijc6PP8APGkSyRMyuCTn5hx7Dkd6jeOWLSdSjYQqYJI0nTGc/MQMY9Dnn8qZ0GfAWlJOw/NnHOOtSYGBkMpHIAHB/wA/1pkIPl5dtwbG7HJx9fWpYxgg7myD6Yxn/P40CJAjIcFCFYcknGO9PjkYIHWMiQNuVsgAUwYyTvzwcg8e2PrU1ikAubczxuybgZFBGCuaAI3DZyuSowx9u/8Aj+dKT5bnIUkkMFJHGT/+qqkmkeIUumeCaK5AY8Icd+gB7VXKeIYwWk06coR94QbgPyosK5p5b5lYKQp3HHPv/jUBObaQgjeBkfLk5+ncdqzjfXgO2YBCTn54iD+v4VJY3N1fXjWhWDmORiwHZVLEfjiizC57f4Rz/wAIpp+epgQkjv8AKK3KwfCGB4U08DO0W8ZGevSt3NNbEsgk6mqc3err9TVWZMimBk33NncAdTGw/SuP0PQUkme8nXPOFU+o7/hXYXQIhmB4+U49+Ko6dtFlHj3zXn42q4RsupzOiqmKi3slsMmjEUZbaTj0rINxFeFowGWQc7T3rbvJlSAqeuec1y4fOoKE6luMVxqK5E76s9S3QyL+ySz1KG8AVcNhsjIOeK6zxzEJrHw9E33ZbpkY7tvBPrWJrhXy3J6ZrY+JIL+H9JP/AE1eu/CTcoa9DlcFCTS6nB3Nrplld2rWPie4vna7jjaF7VkDKWwx3HjAFX725ERKKqDk4O0VTsyM/vPnHYNzitmO70bFv9s0tJZYCxZ1JxNn+9zwRx09PwrqbuUtDn5Y7IQ2Bub64sklM/mywqZCNu3YNueAcnmtbwjBbLreky2d9LeINQCmSRSh6DjB9Ov402aa2mupZ4LWOCJn3LEDnaPSrGjzJ/wk+ixoAMXaZwOtF+gW6nY69rqabqOsmQRgPHsJZsH7oAwP4ifQZ/AV5fDfYKq9vA5VcHcDz15PPXn9K6/4gSRrqGoKxUM0q7c9TgLn9Kw7RGfT40W1tCsi/wCvLgFeW5578fljpSv0PIxcnKfL2RmRXstpv8rGJU2Ng7SeQeuPUCp21qcwgTLFKxbcxKBSPoQP6VTIBHTtxmobdD9sjd/L4ccSj5T9fahNmNGtOK5U7IiN2/8AaH2uMqkxl8wEdiTn+tdp41t4rnxPqj3AYmLT45gQTw21Bnj6muP1GVZSh/cHD/wPuP8AIcV0vxBLDxVIFyN1tCDjPI2Ln8OlM9HC311NDVPBmj6Vobahpur/AG2V/LQRuyuvzEcgDkH/AOuKb4a+Hula1oX2zUtSltplkdCFlAU47nPfntiuMjjYTxkrsDn7wGOM+vtxU8oR5vNuIG8ph8rEEA9uO3X070HXZnU+BLa2tPGkAtZS8baa77/7xI5P6Vn6zrtzrF55upSKqxqI0CjgAf1PWtDwNsk8WxmFQsYsJQox0GP5ZzWXN4Zn1SC6nt7i2ijtUXcsj4Zvlz8o79P1pXaOPGQdRKK6mcupw24Fuk8MaE8gH7uev51OXUJ59v8AfA++BnK//XrBlsxbvNDcKhliYoxU7uR7jqK6y18RajcaBNpttaaZHa/Z1jcgBHOFzuGTyTj35qtdNTCphnFJqTujnNTllupDNcMHcKFU4xgfh26/nXQ+FbmSXwX4mgZ8xxxRFVPbMgz+eBWV8vkRkiwJLk5mYhvxGelanhJNnhjxQQFI8qHgDP8Ay0/lSvfcrCtuSu9WXdF8P+GdQmMetXhsSLWF02y7BIzDLHJ4J6dMUo8L2Go+LY9O8xDpsMzQiUkAsgQfxAYJ965ZElmkVEhZmcZRQpJYYzx7Y5qxbiR7WSOOFjMw3bFGTtHzZx1GBznjig9E2fF/g7w9oSxjTNRkupWt5XZGlD4K4wcjp1PBqXxTqFxpHhbw3Fa7FM2mmF2IyVUkZx7nkVywDOJQLdiVQlwFOQo659BXTfEC2H9ieGVVSNunIee2aTM6jtFnNRxX76HGYdPtJrdpGCs2SznPfB6D+tdj8RReL4Y8Jq8VuloPK+QE7xJs5Hptxj3zXnQgEsiRsCQzAYz613PxCuNMn0rw9HZuX1C3SFJRlgFj28cdM5PUc04vUilJSWnQoFJZ7W6jtLCO9YxKwiYbg3zL6EcjmuZ1S2vYoma50+KzQsMIikbTg9M+vP5Vuo4k0/VB9/bHGoUcA5kUda5a4jWKQxoCShIds8E+3sPWqm9Rt9BlnII94yd5I2Y/vDkV6f4Rjis9T1fVXcJ5suy3wAMKQHP/AKEo/CsHSfCVv4g8IyXljKy3llj93gASOx/iY9OB+tb9nps2naba2tzgSRKDKQQfmPJH0HA/CnDVFWsdQPEsvP8ApcnHGOn+cVgeNLk6z4ZluAxnubE/aIS5Hy44Y++Ac49RTDatltxyDzwf89qfbwxoxSb54nUo6kY+Vhg/oTVuK6Duzy3QXb+0kPLM+4H1Pymu+0nT5dTuVQs+z7oOSQB1OPb+prU8C/DWOxFrq2p3LJLDdHy1RlMboOhPp3rasTbHxJffY9v2XcfK24x23Y9s1y15uMW10Rx4iip1INvd2sXIbCCytgAqpEg9P881mvrFj9p8lt6ZOAzLgVp69L5NnG2DsJwT6elcXdOC+78a8dRUldvVnsxtFJJaI29b0eK+tWBC7gMqw5x/9Y15zNatDIRtYjJBUdjXqdijHR4PMBDFeAfTt+lcHqcanULjb90SEcV2YOT1j0R5OZJQtNLV7lqxl1V/DCxW+saP5CiXNldKnmxDnPJGcnkj3IrzeGRkmgKMqurggsOAc8ZrrLtbaMA3j+VGwYK+wtluw47d/wAKwpvJ2SAiISI+GUR9BnGc/r+NeitUKhVcoJ2NWa6uZY4VutWtbtEkcC2iA+X5W+YYA4z/ADFXdPkVfE3h1j9xbTJY+gjbP5c1z8UaJOGtibhPuqwUpuJGMfma9MbSbe2+FED3EEX22CXyxKFG4ZdsgHrgjjFK6ukdEG5NvsZVxdNJH+5DNDKA0nPQjp+IyfTrVcSyGN42dzHKvzKf4scjP05P4VSj3JCoDMQwwcnAPf8ALvUgdnchJF46kjO7HH69Ko2uTYYgDcGcc/8A1qckm/CkfNwQT6f59Kr8ktl9xzwQMYzS5JBVpSsnXB5A7/nSET5y8fl4AHIycYH+QR/9arMTtFGu8JvJwMdeef8AP+RVLK/MSSSACcHGP/1njHNWrK3S5vIondYt0gBZzgAep/HJoGb+myOgjK5ygAGRgc/5Nd34dOEBDBgBjg/59a8ek8Q6hHM0dppkuFJVZJjtz6HHb9etPXxT4sXP2adIFIwQjIKYnqe3XljaX8si31pBPGqjb5yAj9a8Ykht7bx1r6WYRbeK0uTEUPC/u+30yayb668Q6vIr3t00z42jfPx+Qp+lWV7p13JcMsUimJ42RWzkMpXuOmTRsI9l8EknwdpvX/j3j6/SugrB8FKB4N03AwPIQV0GKFsJkT9TTXTINPb7xpKYijc2YlBHqMVykUjabeSWdz8ozlWPT/8AUa7jAqlqWkW2pxhZ1w4HyuOCv/1q58RQVWNjGrGd1OnuvxOduYUuEw4yOxBwaofYobXLRp8xHLE5NbA8L3sPywX6lB0Dqaq3nhPU7pChvowDwcAivMWCqp26G31ufL8DucbcXVpfa/a6fPIvktJ+9bOMAdvzxXR/EUf8U5pWeP3rfyqifhjdCcTC6g3A5OQTmtD4kDHhzThx8tww/Q16lKmoRsZ0ZzndzVnc87iOKkqqH5FSiTFaG5Lkjireg/8AI26MR1+2JVISZzmrug5/4SvRW/6e0oA7zUtHsNX1zWE1KNZFjVmjbJHlnb1+o4rjdNuVGg+RtgYurkykA+X16nPBPXoeorstZ0SXV9X1FITGrh+HckbcqvYdTgnrWangO6SwFqTZsgGAx3AjnOfrzj6cUHBiYSb91X0PPuMCmqC88ahgCzDBLbcfj2+tdx/wre6HAuIBz71DJ8OLrIPnwkg5HWp17HBHD1U7uLOU1OObUb21SMAs0mwKPmY98479OtdZ42RZNYm2/wCs8kIBjqDArf8AslOPgrUY7y3uobiCOW3IKEbj047+tWfEtk1/rerJHOkE1vFbSKzDrujaM/8AoVUetQTSd1ZmHqcaw+BbIdzBvP8AwOc/0SnXCLc/D+yC8slvJn/gM4/+LrP1VGi0OC2mvROytHCxVSFUDewxnnPz85xU2nH7b4OjtUuxbSrcTw+YRkFWCPjHodh6UjoudF4R+TxVbW642xaQkY+pjLn9XrA8YaDPBeLJ5TRRzr8m7GeOCBjqD1H+TW54PVYPF1pE9yLiZ7SUSMq4B2IijH4A1u6z4Y1LXZopJbuBYok2xIAflB559SeKGcuKUnD3Vd9Dx0adcwxsgRcZ4OQK6C2u9EttNkhj0eV754fL8+S43eW+OWC9MV1kvw7u3yDcQEe+RUR+HV3z+/gye4zTu+xxueJlGzicxYCQaayJsImYqu5uF7ZP93681s+DtOmtPCWo3U6lY7ua3WMnuomAJ9+c1dj8A3sULxiSAhupLMMfTHfipLjSrrw34Fv4LmdZUSWFosZ+X95kjntnmg3w0JJrmTVjD0VBb62k3a20yY89iqOn58CotFYf8J1cRdjBPCOfSEj+lWtS0eK21m4kGpsYHBhMUQxlHfPBzxjcfyNYugXSjxvbXLMoR7tgc+jZX/2aktTv16l0IfM8ROmAzaeir/21MQ/qa6PxTok+saRpQto5C1vpqPwMjgHr9cHpXOW9mtrJLc/2kZI5lRTCVy37vlQfYbB+lejxWt5f+HtPFhLDG8mnpHI7gnAIPT360jOorxatc8btrHzLy3wOTImPzq/4gf7Prag/MPs8SnjO07a7aP4fXVrLHIk0TbGDbRkdD71l6n8ONUutSkltnhEZOVMshB9+gqqbs9TjwiqRupJo5bTYlNhf+WVdn8rLZxn96vH4VkmNYdQudzqjGRsFlJUnd3x/9eu+074b6lFPuvpoPLUBl8pifmB9x0pf+EAv4bp7iCeDezFjuXd3z3FFR66F1efm0TsO+HSsPDXiHds3meInYAB0Natwc/Luf5eQSO3/ANesX7a/gOwvbK5sprx9RKzGWEnbHtOOcjvWPJ42i2Zj0uYyKwGWlyNvfoOuKuDsjeF+VXOqMq5LK2NpwMCq8kgHyseW+7nmudm8b2JfCWFx0xtDgVH/AMJayTB4dInMSx5JYkMG79sYxirui9T0m9HmfDu4B6B1I/MVzFnfLYSRuv8AAeR6jof8+1T6R4rm8Rad/YMGkXEf2lwpuScrHznJwvtitA/Dq8kGHu4SD1BJrnqR5rp7HnYuFT2qnBN27G3FLBqNmCNssTjvzmqg0CySQP5RYg5AY5FPsfB+oWH+ru4wCOQCeavPomqOABcwjPcDpXkzwlS/u7HdSxc+X34NMxdc1KPTrY5I8xhhF9f/AKwrg5OScnJJyT613174Dvb2RmkuImJ67iTmoP8AhXd5x/pEP59K7sPR9kttTzMXLEYh6xaS2OHP7vyX8sP5Um8KVBz+fbpTfs2yGS3EYCyOJWl8sZJHzY+gY13R+Hd4RgzwEemTUn/Cv73gG5h/Oum7XQwjDExVlFnFBFlvBcvDEsildqogUDb04Hc9fxrq9XttT1rR2h0mKzexeRZ498hVsgchvQ5J49qsn4fXpYHz4Tg5Bz0qxa+DNWsnZra/SInlgCcH8PWoad7panXhKtek2qkW09TkJvDHiKKB5p4NMhiI+ZjdBVGf8iqkfhrWwPOaXTfKwWLG6yOPw9x+dd3deDdXvipur5JdpyAW4H4etNPgnVSmw36lduzaWP3euPpmqi5W1RvPE1b+7TdvM4X/AIRvWjOIfN0oTE4Ci6AI/T0q1/whnijcfl0/c3JzOMH9K62XwHqM7l5ryJ3bqxJyatL4W16OPy01RQoGBk5I/HFJyn0RVPEzd+em/LY4K48P6vazGO7utIilIDbXugD/AC6UiaBqxhMi3WjtEcksLvAPQHnHqR+ddZL8Or2Ql3uIndjuLEkkmpLfwDqccZRbxI03BtuSOR3pqT2aI+s17u1N2OSHhjXd4JfRtrH/AJ+vX046cj86mtvC+sXU/l2k2kSykH5UuSSf06V2UPgjUVI36mFAbdxk8/5/lXR6TodtpCExAvM/3pWHJ/wHtVptl061acknGy6tnmv/AAgHijJKwaevcEXBP9Kf/wAIJ4pwAI7FdvAH2gn+Yr1nFLTsdV2Zug2C6dpVvbkMsscQWRfMLBW749icmtaoBEomaUAh2AUnPXH/AOs1YxTAgfqaKUgk9OtJtb0oEFFO2t6UmxvSgBKKXY3pRtPpQAmAa5/xP4XfxBptvaLcrD5UrSFmUnOc+n1rodjelPwfSiwzzb/hUrd9UjB9oT/jS/8ACpW/6Cy/9+T/AI16Rg+lLhvSiwXPNf8AhUsv/QWj/wC/J/xqxp3w1m07VbS8GpRSC2lWTaYyC2O3WvQcH0phDelFkF2UIrFor26uWk3ee+4ADG3gDHv0/Wp/Lqfa3pSbD6UWAgMYPamGEHtVrYfSjyzxxQIo3EYhtpJRE8pRSwRBlm9APc1xnifwZdX+oR6ol60FzKirIiIzKu1QOMcnp3r0LYfSlCN6UmrjTsePy/Dye4wZNUUkf3oXpYvAFxbArHqMBz1Bikwf0r2HDe/50nze/wCdKw7nn/hrwlNaal/aZmiaW2ieKKNI2VW3L3J5znHSu0spDcWUMrRNEzLyjjBU1a2Mev8AOjYfSmlYTdyIx0nlCptrelG1vSmIh8gVlatoY12C6sboPFaYXayEbpGHOfYA8YPWtzY3pTtjelA0eVj4dS+UVN7dpxgK0JI/nVY/DObr9uwfe1bivXcNRhqmw7nlEfw6u3cRvqRMcnyNi2cNtPXBPA/GvQtOtH03ydP2vJDFbIiTkddvHPoTkGtXDUbT6U0rA3chMYphiqztPpTdjelMRUNuDSfZl9KubT6UbG9KAOc8Ww+X4S1Mj/ngen1FeI2rsnmYHPrjNfROo6dHqWnz2c+4RTrsYqcEfSuKb4SWaFvI1S6QN2aNGxTWgjxI/wDIQ68k16BHcBNDAYnIjGMVv/8ACk7Xz/N/tictnODAv+NbK/DGA24hfU5ygGDtjUZovYCl8KiSl+OeVQ/qa9BxWT4f8K2fhtJRZvM7S4DNIwJ4+lbOw+lIBmPajFP2H0o2mgBuKMU7YfSjafSgBuKMU7aaXafSgBmKXFOwaMGgBuKMUu0+lGD6UAJRS4PpSbT6UAJikp21vSjDelADaKXB9KNjelACUUuxvSjY3pQAlS1Hsb0p+R60Af/Z;rotation=-180;rounded=1;" parent="1" vertex="1">
          <mxGeometry x="301.94" y="214" width="275.49" height="176.69" as="geometry" />
        </mxCell>
        <mxCell id="QatNc70n-s6f2DUu6Mrz-104" style="edgeStyle=orthogonalEdgeStyle;rounded=1;orthogonalLoop=1;jettySize=auto;html=1;exitX=1;exitY=0.5;exitDx=0;exitDy=0;exitPerimeter=0;entryX=0.5;entryY=1;entryDx=0;entryDy=0;endArrow=none;endFill=0;" parent="1" source="QatNc70n-s6f2DUu6Mrz-2" target="QatNc70n-s6f2DUu6Mrz-96" edge="1">
          <mxGeometry relative="1" as="geometry" />
        </mxCell>
        <mxCell id="QatNc70n-s6f2DUu6Mrz-2" value="" style="pointerEvents=1;verticalLabelPosition=bottom;shadow=0;dashed=0;align=center;html=1;verticalAlign=top;shape=mxgraph.electrical.resistors.resistor_1;rotation=-90;rounded=1;" parent="1" vertex="1">
          <mxGeometry x="206.62" y="602.69" width="50" height="16.69" as="geometry" />
        </mxCell>
        <mxCell id="QatNc70n-s6f2DUu6Mrz-105" style="edgeStyle=orthogonalEdgeStyle;rounded=1;orthogonalLoop=1;jettySize=auto;html=1;exitX=1;exitY=0.5;exitDx=0;exitDy=0;exitPerimeter=0;entryX=0.5;entryY=1;entryDx=0;entryDy=0;endArrow=none;endFill=0;" parent="1" source="QatNc70n-s6f2DUu6Mrz-3" target="QatNc70n-s6f2DUu6Mrz-84" edge="1">
          <mxGeometry relative="1" as="geometry" />
        </mxCell>
        <mxCell id="QatNc70n-s6f2DUu6Mrz-3" value="" style="pointerEvents=1;verticalLabelPosition=bottom;shadow=0;dashed=0;align=center;html=1;verticalAlign=top;shape=mxgraph.electrical.resistors.resistor_1;rotation=-90;rounded=1;" parent="1" vertex="1">
          <mxGeometry x="255.68" y="604" width="50" height="16.69" as="geometry" />
        </mxCell>
        <mxCell id="QatNc70n-s6f2DUu6Mrz-103" style="edgeStyle=orthogonalEdgeStyle;rounded=1;orthogonalLoop=1;jettySize=auto;html=1;exitX=0;exitY=0.5;exitDx=0;exitDy=0;exitPerimeter=0;entryX=0.5;entryY=1;entryDx=0;entryDy=0;endArrow=none;endFill=0;" parent="1" source="QatNc70n-s6f2DUu6Mrz-4" target="QatNc70n-s6f2DUu6Mrz-91" edge="1">
          <mxGeometry relative="1" as="geometry" />
        </mxCell>
        <mxCell id="QatNc70n-s6f2DUu6Mrz-4" value="" style="pointerEvents=1;verticalLabelPosition=bottom;shadow=0;dashed=0;align=center;html=1;verticalAlign=top;shape=mxgraph.electrical.resistors.resistor_1;rotation=90;rounded=1;" parent="1" vertex="1">
          <mxGeometry x="163.62" y="602.69" width="50" height="16.69" as="geometry" />
        </mxCell>
        <mxCell id="QatNc70n-s6f2DUu6Mrz-22" style="edgeStyle=entityRelationEdgeStyle;rounded=1;orthogonalLoop=1;jettySize=auto;html=1;endArrow=none;endFill=0;fillColor=#f8cecc;strokeColor=#FF3333;" parent="1" target="QatNc70n-s6f2DUu6Mrz-23" edge="1">
          <mxGeometry relative="1" as="geometry">
            <mxPoint x="135.12" y="35" as="targetPoint" />
            <mxPoint x="865.12" y="35" as="sourcePoint" />
          </mxGeometry>
        </mxCell>
        <mxCell id="QatNc70n-s6f2DUu6Mrz-71" style="edgeStyle=orthogonalEdgeStyle;rounded=1;orthogonalLoop=1;jettySize=auto;html=1;exitX=0;exitY=0.5;exitDx=0;exitDy=0;exitPerimeter=0;entryX=0.5;entryY=1;entryDx=0;entryDy=0;endArrow=none;endFill=0;" parent="1" source="QatNc70n-s6f2DUu6Mrz-5" edge="1">
          <mxGeometry relative="1" as="geometry">
            <mxPoint x="139.68" y="566.02" as="targetPoint" />
          </mxGeometry>
        </mxCell>
        <mxCell id="QatNc70n-s6f2DUu6Mrz-5" value="" style="pointerEvents=1;verticalLabelPosition=bottom;shadow=0;dashed=0;align=center;html=1;verticalAlign=top;shape=mxgraph.electrical.resistors.resistor_1;rotation=90;rounded=1;" parent="1" vertex="1">
          <mxGeometry x="114.68" y="602.69" width="50" height="16.69" as="geometry" />
        </mxCell>
        <mxCell id="QatNc70n-s6f2DUu6Mrz-126" style="edgeStyle=orthogonalEdgeStyle;rounded=1;orthogonalLoop=1;jettySize=auto;html=1;exitX=1;exitY=0.5;exitDx=0;exitDy=0;exitPerimeter=0;entryX=0.5;entryY=1;entryDx=0;entryDy=0;endArrow=none;endFill=0;" parent="1" source="QatNc70n-s6f2DUu6Mrz-9" target="QatNc70n-s6f2DUu6Mrz-109" edge="1">
          <mxGeometry relative="1" as="geometry" />
        </mxCell>
        <mxCell id="QatNc70n-s6f2DUu6Mrz-9" value="" style="pointerEvents=1;verticalLabelPosition=bottom;shadow=0;dashed=0;align=center;html=1;verticalAlign=top;shape=mxgraph.electrical.resistors.resistor_1;rotation=-90;rounded=1;" parent="1" vertex="1">
          <mxGeometry x="598.68" y="602" width="50" height="16.69" as="geometry" />
        </mxCell>
        <mxCell id="QatNc70n-s6f2DUu6Mrz-24" style="edgeStyle=entityRelationEdgeStyle;rounded=1;orthogonalLoop=1;jettySize=auto;html=1;fillColor=#dae8fc;strokeColor=#030405;endArrow=none;endFill=0;" parent="1" edge="1">
          <mxGeometry relative="1" as="geometry">
            <mxPoint x="897.68" y="71" as="targetPoint" />
            <mxPoint x="97.68" y="71" as="sourcePoint" />
          </mxGeometry>
        </mxCell>
        <mxCell id="QatNc70n-s6f2DUu6Mrz-127" style="edgeStyle=orthogonalEdgeStyle;rounded=1;orthogonalLoop=1;jettySize=auto;html=1;exitX=1;exitY=0.5;exitDx=0;exitDy=0;exitPerimeter=0;entryX=0.5;entryY=1;entryDx=0;entryDy=0;endArrow=none;endFill=0;" parent="1" source="QatNc70n-s6f2DUu6Mrz-10" target="QatNc70n-s6f2DUu6Mrz-108" edge="1">
          <mxGeometry relative="1" as="geometry" />
        </mxCell>
        <mxCell id="QatNc70n-s6f2DUu6Mrz-10" value="" style="pointerEvents=1;verticalLabelPosition=bottom;shadow=0;dashed=0;align=center;html=1;verticalAlign=top;shape=mxgraph.electrical.resistors.resistor_1;rotation=-90;rounded=1;" parent="1" vertex="1">
          <mxGeometry x="697.18" y="601" width="50" height="16.69" as="geometry" />
        </mxCell>
        <mxCell id="QatNc70n-s6f2DUu6Mrz-107" style="edgeStyle=orthogonalEdgeStyle;rounded=1;orthogonalLoop=1;jettySize=auto;html=1;exitX=1;exitY=0.5;exitDx=0;exitDy=0;exitPerimeter=0;entryX=0.5;entryY=1;entryDx=0;entryDy=0;endArrow=none;endFill=0;" parent="1" source="QatNc70n-s6f2DUu6Mrz-11" target="QatNc70n-s6f2DUu6Mrz-95" edge="1">
          <mxGeometry relative="1" as="geometry" />
        </mxCell>
        <mxCell id="QatNc70n-s6f2DUu6Mrz-11" value="" style="pointerEvents=1;verticalLabelPosition=bottom;shadow=0;dashed=0;align=center;html=1;verticalAlign=top;shape=mxgraph.electrical.resistors.resistor_1;rotation=-90;rounded=1;" parent="1" vertex="1">
          <mxGeometry x="345.68" y="602.69" width="50" height="16.69" as="geometry" />
        </mxCell>
        <mxCell id="QatNc70n-s6f2DUu6Mrz-106" style="edgeStyle=orthogonalEdgeStyle;rounded=1;orthogonalLoop=1;jettySize=auto;html=1;exitX=1;exitY=0.5;exitDx=0;exitDy=0;exitPerimeter=0;entryX=0.5;entryY=1;entryDx=0;entryDy=0;endArrow=none;endFill=0;" parent="1" source="QatNc70n-s6f2DUu6Mrz-12" target="QatNc70n-s6f2DUu6Mrz-94" edge="1">
          <mxGeometry relative="1" as="geometry" />
        </mxCell>
        <mxCell id="QatNc70n-s6f2DUu6Mrz-12" value="" style="pointerEvents=1;verticalLabelPosition=bottom;shadow=0;dashed=0;align=center;html=1;verticalAlign=top;shape=mxgraph.electrical.resistors.resistor_1;rotation=-90;rounded=1;" parent="1" vertex="1">
          <mxGeometry x="299.62" y="602.69" width="50" height="16.69" as="geometry" />
        </mxCell>
        <mxCell id="QatNc70n-s6f2DUu6Mrz-124" style="edgeStyle=orthogonalEdgeStyle;rounded=1;orthogonalLoop=1;jettySize=auto;html=1;exitX=1;exitY=0.5;exitDx=0;exitDy=0;exitPerimeter=0;entryX=0.5;entryY=1;entryDx=0;entryDy=0;endArrow=none;endFill=0;" parent="1" source="QatNc70n-s6f2DUu6Mrz-13" target="QatNc70n-s6f2DUu6Mrz-111" edge="1">
          <mxGeometry relative="1" as="geometry" />
        </mxCell>
        <mxCell id="QatNc70n-s6f2DUu6Mrz-13" value="" style="pointerEvents=1;verticalLabelPosition=bottom;shadow=0;dashed=0;align=center;html=1;verticalAlign=top;shape=mxgraph.electrical.resistors.resistor_1;rotation=-90;rounded=1;" parent="1" vertex="1">
          <mxGeometry x="645.68" y="601" width="50" height="16.69" as="geometry" />
        </mxCell>
        <mxCell id="QatNc70n-s6f2DUu6Mrz-121" style="edgeStyle=orthogonalEdgeStyle;rounded=1;orthogonalLoop=1;jettySize=auto;html=1;exitX=1;exitY=0.5;exitDx=0;exitDy=0;exitPerimeter=0;endArrow=none;endFill=0;" parent="1" source="QatNc70n-s6f2DUu6Mrz-14" target="QatNc70n-s6f2DUu6Mrz-112" edge="1">
          <mxGeometry relative="1" as="geometry" />
        </mxCell>
        <mxCell id="QatNc70n-s6f2DUu6Mrz-14" value="" style="pointerEvents=1;verticalLabelPosition=bottom;shadow=0;dashed=0;align=center;html=1;verticalAlign=top;shape=mxgraph.electrical.resistors.resistor_1;rotation=-90;rounded=1;" parent="1" vertex="1">
          <mxGeometry x="551.62" y="602" width="50" height="16.69" as="geometry" />
        </mxCell>
        <mxCell id="QatNc70n-s6f2DUu6Mrz-115" style="edgeStyle=orthogonalEdgeStyle;rounded=1;orthogonalLoop=1;jettySize=auto;html=1;exitX=1;exitY=0.5;exitDx=0;exitDy=0;exitPerimeter=0;entryX=0.5;entryY=1;entryDx=0;entryDy=0;endArrow=none;endFill=0;" parent="1" source="QatNc70n-s6f2DUu6Mrz-15" target="QatNc70n-s6f2DUu6Mrz-113" edge="1">
          <mxGeometry relative="1" as="geometry" />
        </mxCell>
        <mxCell id="QatNc70n-s6f2DUu6Mrz-15" value="" style="pointerEvents=1;verticalLabelPosition=bottom;shadow=0;dashed=0;align=center;html=1;verticalAlign=top;shape=mxgraph.electrical.resistors.resistor_1;rotation=-90;rounded=1;" parent="1" vertex="1">
          <mxGeometry x="500.62000000000006" y="601.69" width="50" height="16.69" as="geometry" />
        </mxCell>
        <mxCell id="QatNc70n-s6f2DUu6Mrz-114" style="edgeStyle=orthogonalEdgeStyle;rounded=1;orthogonalLoop=1;jettySize=auto;html=1;exitX=1;exitY=0.5;exitDx=0;exitDy=0;exitPerimeter=0;entryX=0.5;entryY=1;entryDx=0;entryDy=0;endArrow=none;endFill=0;" parent="1" source="QatNc70n-s6f2DUu6Mrz-16" target="QatNc70n-s6f2DUu6Mrz-93" edge="1">
          <mxGeometry relative="1" as="geometry" />
        </mxCell>
        <mxCell id="QatNc70n-s6f2DUu6Mrz-16" value="" style="pointerEvents=1;verticalLabelPosition=bottom;shadow=0;dashed=0;align=center;html=1;verticalAlign=top;shape=mxgraph.electrical.resistors.resistor_1;rotation=-90;rounded=1;" parent="1" vertex="1">
          <mxGeometry x="451.68" y="602.69" width="50" height="16.69" as="geometry" />
        </mxCell>
        <mxCell id="QatNc70n-s6f2DUu6Mrz-21" value="PULL up weerstanden om verbinding hoog te houden" style="text;html=1;strokeColor=none;fillColor=none;align=center;verticalAlign=middle;whiteSpace=wrap;rounded=1;" parent="1" vertex="1">
          <mxGeometry x="39.68" y="615.35" width="60" height="30" as="geometry" />
        </mxCell>
        <mxCell id="QatNc70n-s6f2DUu6Mrz-23" value="5V vcc" style="text;html=1;strokeColor=#b85450;fillColor=#f8cecc;align=center;verticalAlign=middle;whiteSpace=wrap;rounded=1;" parent="1" vertex="1">
          <mxGeometry x="39.68000000000006" y="20" width="60" height="30" as="geometry" />
        </mxCell>
        <mxCell id="QatNc70n-s6f2DUu6Mrz-26" value="5V vcc" style="text;html=1;strokeColor=#b85450;fillColor=#6666FF;align=center;verticalAlign=middle;whiteSpace=wrap;rounded=1;" parent="1" vertex="1">
          <mxGeometry x="39.68000000000006" y="59" width="60" height="30" as="geometry" />
        </mxCell>
        <mxCell id="QatNc70n-s6f2DUu6Mrz-44" value="" style="endArrow=none;html=1;rounded=1;" parent="1" edge="1">
          <mxGeometry width="50" height="50" relative="1" as="geometry">
            <mxPoint x="139.68" y="803" as="sourcePoint" />
            <mxPoint x="139.18" y="723" as="targetPoint" />
          </mxGeometry>
        </mxCell>
        <mxCell id="QatNc70n-s6f2DUu6Mrz-46" style="edgeStyle=orthogonalEdgeStyle;rounded=1;orthogonalLoop=1;jettySize=auto;html=1;exitX=1;exitY=1;exitDx=0;exitDy=0;exitPerimeter=0;entryX=0;entryY=0.5;entryDx=0;entryDy=0;entryPerimeter=0;endArrow=none;endFill=0;" parent="1" source="JiZGD-UJO6ILcqSkcmLT-4" target="QatNc70n-s6f2DUu6Mrz-14" edge="1">
          <mxGeometry relative="1" as="geometry" />
        </mxCell>
        <mxCell id="QatNc70n-s6f2DUu6Mrz-47" style="edgeStyle=orthogonalEdgeStyle;rounded=1;orthogonalLoop=1;jettySize=auto;html=1;exitX=1;exitY=1;exitDx=0;exitDy=0;exitPerimeter=0;entryX=0;entryY=0.5;entryDx=0;entryDy=0;entryPerimeter=0;endArrow=none;endFill=0;" parent="1" source="JiZGD-UJO6ILcqSkcmLT-2" target="QatNc70n-s6f2DUu6Mrz-9" edge="1">
          <mxGeometry relative="1" as="geometry" />
        </mxCell>
        <mxCell id="QatNc70n-s6f2DUu6Mrz-48" style="edgeStyle=orthogonalEdgeStyle;rounded=1;orthogonalLoop=1;jettySize=auto;html=1;exitX=1;exitY=1;exitDx=0;exitDy=0;exitPerimeter=0;entryX=0;entryY=0.5;entryDx=0;entryDy=0;entryPerimeter=0;endArrow=none;endFill=0;" parent="1" source="JiZGD-UJO6ILcqSkcmLT-11" target="QatNc70n-s6f2DUu6Mrz-16" edge="1">
          <mxGeometry relative="1" as="geometry" />
        </mxCell>
        <mxCell id="QatNc70n-s6f2DUu6Mrz-49" style="edgeStyle=orthogonalEdgeStyle;rounded=1;orthogonalLoop=1;jettySize=auto;html=1;exitX=1;exitY=1;exitDx=0;exitDy=0;exitPerimeter=0;entryX=0;entryY=0.5;entryDx=0;entryDy=0;entryPerimeter=0;endArrow=none;endFill=0;" parent="1" source="JiZGD-UJO6ILcqSkcmLT-8" target="QatNc70n-s6f2DUu6Mrz-15" edge="1">
          <mxGeometry relative="1" as="geometry" />
        </mxCell>
        <mxCell id="QatNc70n-s6f2DUu6Mrz-50" style="edgeStyle=orthogonalEdgeStyle;rounded=1;orthogonalLoop=1;jettySize=auto;html=1;exitX=1;exitY=1;exitDx=0;exitDy=0;exitPerimeter=0;entryX=0;entryY=0.5;entryDx=0;entryDy=0;entryPerimeter=0;endArrow=none;endFill=0;" parent="1" source="JiZGD-UJO6ILcqSkcmLT-3" target="QatNc70n-s6f2DUu6Mrz-13" edge="1">
          <mxGeometry relative="1" as="geometry" />
        </mxCell>
        <mxCell id="QatNc70n-s6f2DUu6Mrz-51" style="edgeStyle=orthogonalEdgeStyle;rounded=1;orthogonalLoop=1;jettySize=auto;html=1;exitX=1;exitY=1;exitDx=0;exitDy=0;exitPerimeter=0;entryX=0;entryY=0.5;entryDx=0;entryDy=0;entryPerimeter=0;endArrow=none;endFill=0;" parent="1" source="JiZGD-UJO6ILcqSkcmLT-12" target="QatNc70n-s6f2DUu6Mrz-10" edge="1">
          <mxGeometry relative="1" as="geometry" />
        </mxCell>
        <mxCell id="QatNc70n-s6f2DUu6Mrz-53" style="edgeStyle=orthogonalEdgeStyle;rounded=1;orthogonalLoop=1;jettySize=auto;html=1;exitX=1;exitY=1;exitDx=0;exitDy=0;exitPerimeter=0;entryX=0;entryY=0.5;entryDx=0;entryDy=0;entryPerimeter=0;endArrow=none;endFill=0;" parent="1" source="JiZGD-UJO6ILcqSkcmLT-1" target="QatNc70n-s6f2DUu6Mrz-2" edge="1">
          <mxGeometry relative="1" as="geometry" />
        </mxCell>
        <mxCell id="QatNc70n-s6f2DUu6Mrz-55" style="edgeStyle=orthogonalEdgeStyle;rounded=1;orthogonalLoop=1;jettySize=auto;html=1;exitX=1;exitY=1;exitDx=0;exitDy=0;exitPerimeter=0;entryX=0;entryY=0.5;entryDx=0;entryDy=0;entryPerimeter=0;endArrow=none;endFill=0;" parent="1" source="JiZGD-UJO6ILcqSkcmLT-7" target="QatNc70n-s6f2DUu6Mrz-12" edge="1">
          <mxGeometry relative="1" as="geometry" />
        </mxCell>
        <mxCell id="QatNc70n-s6f2DUu6Mrz-56" style="edgeStyle=orthogonalEdgeStyle;rounded=1;orthogonalLoop=1;jettySize=auto;html=1;exitX=1;exitY=1;exitDx=0;exitDy=0;exitPerimeter=0;entryX=0;entryY=0.5;entryDx=0;entryDy=0;entryPerimeter=0;endArrow=none;endFill=0;" parent="1" target="QatNc70n-s6f2DUu6Mrz-11" edge="1">
          <mxGeometry relative="1" as="geometry">
            <mxPoint x="371.12000000000006" y="652.5" as="sourcePoint" />
          </mxGeometry>
        </mxCell>
        <mxCell id="QatNc70n-s6f2DUu6Mrz-57" style="edgeStyle=orthogonalEdgeStyle;rounded=1;orthogonalLoop=1;jettySize=auto;html=1;exitX=1;exitY=1;exitDx=0;exitDy=0;exitPerimeter=0;entryX=1;entryY=0.5;entryDx=0;entryDy=0;entryPerimeter=0;endArrow=none;endFill=0;" parent="1" source="JiZGD-UJO6ILcqSkcmLT-10" target="QatNc70n-s6f2DUu6Mrz-5" edge="1">
          <mxGeometry relative="1" as="geometry" />
        </mxCell>
        <mxCell id="QatNc70n-s6f2DUu6Mrz-64" value="" style="rounded=0;whiteSpace=wrap;html=1;" parent="1" vertex="1">
          <mxGeometry x="119.68" y="543" width="36.5" height="24.01" as="geometry" />
        </mxCell>
        <mxCell id="QatNc70n-s6f2DUu6Mrz-75" style="edgeStyle=orthogonalEdgeStyle;rounded=1;orthogonalLoop=1;jettySize=auto;html=1;exitX=1;exitY=1;exitDx=0;exitDy=0;exitPerimeter=0;entryX=1;entryY=0.5;entryDx=0;entryDy=0;entryPerimeter=0;endArrow=none;endFill=0;" parent="1" source="JiZGD-UJO6ILcqSkcmLT-9" target="QatNc70n-s6f2DUu6Mrz-4" edge="1">
          <mxGeometry relative="1" as="geometry" />
        </mxCell>
        <mxCell id="QatNc70n-s6f2DUu6Mrz-84" value="" style="rounded=0;whiteSpace=wrap;html=1;" parent="1" vertex="1">
          <mxGeometry x="263.12" y="542.99" width="36.5" height="24.01" as="geometry" />
        </mxCell>
        <mxCell id="QatNc70n-s6f2DUu6Mrz-88" value="&lt;font style=&quot;font-size: 10px;&quot;&gt;GPIO6&lt;/font&gt;" style="text;html=1;strokeColor=none;fillColor=none;align=center;verticalAlign=middle;whiteSpace=wrap;rounded=0;" parent="1" vertex="1">
          <mxGeometry x="108.68" y="540" width="60" height="30" as="geometry" />
        </mxCell>
        <mxCell id="QatNc70n-s6f2DUu6Mrz-91" value="" style="rounded=0;whiteSpace=wrap;html=1;" parent="1" vertex="1">
          <mxGeometry x="170.12" y="542.99" width="36.5" height="24.01" as="geometry" />
        </mxCell>
        <mxCell id="QatNc70n-s6f2DUu6Mrz-93" value="" style="rounded=0;whiteSpace=wrap;html=1;" parent="1" vertex="1">
          <mxGeometry x="458.43" y="543.99" width="36.5" height="24.01" as="geometry" />
        </mxCell>
        <mxCell id="QatNc70n-s6f2DUu6Mrz-94" value="" style="rounded=0;whiteSpace=wrap;html=1;" parent="1" vertex="1">
          <mxGeometry x="306.37" y="543" width="36.5" height="24.01" as="geometry" />
        </mxCell>
        <mxCell id="QatNc70n-s6f2DUu6Mrz-95" value="" style="rounded=0;whiteSpace=wrap;html=1;" parent="1" vertex="1">
          <mxGeometry x="352.43" y="542.99" width="36.5" height="24.01" as="geometry" />
        </mxCell>
        <mxCell id="QatNc70n-s6f2DUu6Mrz-96" value="" style="rounded=0;whiteSpace=wrap;html=1;" parent="1" vertex="1">
          <mxGeometry x="214.18" y="543" width="36.5" height="24.01" as="geometry" />
        </mxCell>
        <mxCell id="QatNc70n-s6f2DUu6Mrz-99" style="edgeStyle=orthogonalEdgeStyle;rounded=1;orthogonalLoop=1;jettySize=auto;html=1;exitX=1;exitY=1;exitDx=0;exitDy=0;exitPerimeter=0;entryX=0;entryY=0.5;entryDx=0;entryDy=0;entryPerimeter=0;endArrow=none;endFill=0;" parent="1" source="JiZGD-UJO6ILcqSkcmLT-6" target="QatNc70n-s6f2DUu6Mrz-3" edge="1">
          <mxGeometry relative="1" as="geometry" />
        </mxCell>
        <mxCell id="QatNc70n-s6f2DUu6Mrz-108" value="" style="rounded=0;whiteSpace=wrap;html=1;" parent="1" vertex="1">
          <mxGeometry x="703.93" y="543" width="36.5" height="24.01" as="geometry" />
        </mxCell>
        <mxCell id="QatNc70n-s6f2DUu6Mrz-109" value="" style="rounded=0;whiteSpace=wrap;html=1;" parent="1" vertex="1">
          <mxGeometry x="605.43" y="543" width="36.5" height="24.01" as="geometry" />
        </mxCell>
        <mxCell id="QatNc70n-s6f2DUu6Mrz-111" value="" style="rounded=0;whiteSpace=wrap;html=1;" parent="1" vertex="1">
          <mxGeometry x="652.43" y="543.34" width="36.5" height="24.01" as="geometry" />
        </mxCell>
        <mxCell id="QatNc70n-s6f2DUu6Mrz-112" value="" style="rounded=0;whiteSpace=wrap;html=1;" parent="1" vertex="1">
          <mxGeometry x="555.62" y="543" width="36.5" height="24.01" as="geometry" />
        </mxCell>
        <mxCell id="QatNc70n-s6f2DUu6Mrz-113" value="" style="rounded=0;whiteSpace=wrap;html=1;" parent="1" vertex="1">
          <mxGeometry x="506.62000000000006" y="543.99" width="36.5" height="24.01" as="geometry" />
        </mxCell>
        <mxCell id="bL1KEJmNTPArhZalwCbe-2" value="" style="endArrow=none;html=1;rounded=0;" edge="1" parent="1">
          <mxGeometry width="50" height="50" relative="1" as="geometry">
            <mxPoint x="840" y="803" as="sourcePoint" />
            <mxPoint x="840" y="70" as="targetPoint" />
          </mxGeometry>
        </mxCell>
      </root>
    </mxGraphModel>
  </diagram>
</mxfile>
